<?xml version="1.0" encoding="UTF-8" ?>
<!DOCTYPE svg PUBLIC "-//W3C//DTD SVG 1.1//EN" "http://www.w3.org/Graphics/SVG/1.1/DTD/svg11.dtd">
<svg width="896pt" height="1152pt" viewBox="0 0 896 1152" version="1.1" xmlns="http://www.w3.org/2000/svg">
<path fill="#fefffe" opacity="1.00" d=" M 0.00 0.00 L 896.00 0.00 L 896.00 1152.00 L 0.00 1152.00 L 0.00 0.00 M 303.86 115.83 C 306.97 118.62 310.84 120.31 314.14 122.84 C 322.44 128.88 328.52 137.88 331.11 147.79 C 333.20 157.12 329.78 166.43 325.82 174.75 C 321.44 184.18 317.18 194.39 318.85 205.02 C 320.05 217.29 329.89 228.53 342.19 230.51 C 351.49 232.08 360.55 226.79 369.82 229.09 C 383.04 232.23 392.98 243.96 396.13 256.87 C 398.11 264.82 395.56 273.00 396.90 281.01 C 397.03 282.69 397.74 284.85 395.96 285.93 C 377.92 301.68 364.71 324.57 365.09 349.01 C 364.74 358.07 367.15 366.93 367.38 375.94 C 359.55 383.99 350.04 390.90 339.17 394.15 C 331.24 396.58 321.82 396.18 315.10 390.87 C 309.24 386.62 305.67 379.27 306.34 372.01 C 307.29 360.96 313.41 351.11 314.24 340.03 C 315.14 327.46 310.74 314.26 301.43 305.57 C 296.90 301.70 291.04 299.02 284.99 299.25 C 277.56 299.15 270.48 303.23 265.98 308.99 C 269.89 307.64 273.76 305.86 277.98 305.87 C 286.87 305.29 295.18 311.19 298.93 319.03 C 303.30 326.95 303.43 336.57 300.88 345.10 C 298.48 352.84 295.49 360.40 293.44 368.24 C 290.67 379.18 292.91 391.81 301.04 399.98 C 308.58 408.12 320.15 411.59 331.03 410.59 C 340.67 409.63 350.01 406.26 358.37 401.39 C 361.74 399.51 364.59 396.83 368.03 395.05 C 368.87 410.71 364.76 426.70 355.55 439.50 C 354.24 441.70 351.98 443.84 352.25 446.59 C 354.69 448.84 358.11 450.24 359.54 453.44 C 361.72 457.98 360.33 463.22 358.68 467.70 C 355.80 474.58 351.34 480.79 345.90 485.87 C 339.40 492.14 329.89 494.03 323.72 500.72 C 314.25 509.72 310.47 524.50 315.26 536.77 C 315.89 538.76 317.29 540.92 315.97 542.95 C 308.61 558.41 304.09 575.10 301.88 592.05 C 297.58 619.98 288.22 647.99 270.06 670.06 C 263.66 677.63 256.21 684.23 249.29 691.31 C 238.88 702.76 230.51 715.96 223.93 729.95 C 215.74 747.54 208.63 765.96 206.22 785.34 C 204.09 804.85 206.10 825.30 214.92 843.06 C 219.31 851.79 225.45 860.01 233.99 865.03 C 242.48 870.30 254.06 871.16 262.69 865.74 C 269.89 861.46 273.97 852.37 272.14 844.17 C 271.09 838.26 266.19 833.01 260.02 832.67 C 256.85 832.52 252.13 832.93 251.48 836.80 C 253.67 836.25 256.00 834.55 258.27 835.80 C 264.34 838.47 265.92 847.54 261.14 852.11 C 256.64 857.12 248.88 857.43 243.01 854.89 C 236.85 852.10 232.26 846.66 229.26 840.73 C 225.50 833.08 223.94 824.46 224.32 815.97 C 224.61 792.85 233.79 770.67 246.89 751.92 C 248.68 749.50 250.29 746.85 252.67 744.95 C 254.51 744.62 256.66 744.84 258.01 743.27 C 257.20 742.52 256.28 741.93 255.27 741.50 C 257.26 737.27 260.60 733.50 264.59 731.06 C 265.22 731.92 265.86 732.78 266.52 733.65 C 268.28 734.02 269.18 732.18 268.66 730.70 C 267.95 730.45 266.54 729.95 265.84 729.69 C 279.42 713.77 302.43 704.05 323.01 710.84 C 333.99 714.10 344.14 721.25 349.49 731.55 C 353.42 739.16 353.05 748.03 355.87 756.00 C 358.76 764.46 364.46 772.38 372.67 776.31 C 377.42 778.87 383.07 780.04 386.86 784.12 C 395.50 793.12 401.40 805.38 400.85 818.05 C 400.67 829.84 395.88 842.10 386.02 849.08 C 378.72 854.50 369.53 855.85 360.80 857.24 C 364.13 861.41 370.02 861.75 374.89 862.62 C 373.02 869.39 364.64 872.79 358.15 871.01 C 356.20 870.37 353.32 869.89 352.92 867.46 C 355.13 866.92 357.70 867.32 359.62 865.97 C 359.17 863.62 356.59 863.01 354.65 862.45 C 349.56 861.09 343.31 860.93 339.37 865.01 C 341.92 867.38 345.21 868.83 347.57 871.43 C 351.90 876.12 353.82 882.71 353.42 889.01 C 352.54 903.21 339.45 915.93 324.95 914.90 C 310.96 915.19 298.38 902.84 297.67 889.03 C 297.29 882.43 300.48 875.62 306.28 872.28 C 309.18 870.30 312.82 870.88 316.12 870.64 C 316.16 870.24 316.23 869.45 316.27 869.05 C 311.13 864.88 303.48 864.50 297.80 867.77 C 288.60 872.84 284.16 883.88 284.33 894.01 C 284.84 908.38 293.77 921.72 306.07 928.86 C 316.19 935.25 328.78 937.16 340.44 934.68 C 355.78 931.70 369.63 922.06 377.62 908.60 C 380.02 905.03 381.13 900.48 384.66 897.77 C 382.08 909.35 380.74 921.57 383.77 933.20 C 387.03 946.64 395.50 958.21 405.45 967.55 C 417.57 978.27 432.13 986.45 447.99 990.03 C 451.86 990.82 455.93 991.94 459.85 990.79 C 459.79 987.19 456.52 985.03 454.42 982.54 C 445.45 972.65 436.42 962.38 431.04 950.00 C 427.48 942.05 426.71 932.46 430.51 924.46 C 434.59 914.92 442.77 907.99 450.91 901.94 C 465.29 892.08 481.66 885.35 495.17 874.18 C 506.07 865.03 515.17 853.90 523.20 842.21 C 530.71 829.38 535.24 815.09 540.03 801.10 C 546.63 780.81 552.02 760.08 555.19 738.98 C 556.60 730.01 553.44 721.35 552.11 712.60 C 550.43 704.66 547.61 696.99 546.12 689.01 C 549.41 692.18 550.63 696.72 552.32 700.82 C 554.40 706.09 555.41 711.69 557.08 717.09 C 561.75 715.93 565.59 712.81 570.15 711.34 C 578.29 708.64 587.19 707.62 595.60 709.66 C 608.29 712.68 620.19 719.55 628.66 729.53 C 626.41 729.86 625.07 733.27 627.81 733.91 C 628.68 733.02 629.47 732.06 630.34 731.17 C 633.94 733.62 636.89 737.07 638.93 740.91 C 638.35 741.73 637.77 742.56 637.20 743.39 C 638.41 745.47 641.66 743.87 643.02 745.90 C 652.96 758.25 660.31 772.61 665.25 787.65 C 669.54 802.52 671.86 818.56 667.83 833.75 C 665.64 840.75 662.03 847.63 656.15 852.20 C 651.70 855.79 645.63 857.12 640.04 856.10 C 635.01 855.01 630.38 850.42 630.76 845.01 C 631.08 841.74 632.62 838.25 635.63 836.64 C 638.13 835.16 640.92 836.67 643.54 836.88 C 640.29 830.59 630.75 831.90 626.52 836.49 C 618.39 844.87 621.63 859.98 631.34 865.68 C 639.06 870.58 649.31 870.45 657.36 866.38 C 663.94 863.41 669.35 858.30 673.42 852.40 C 684.58 836.72 688.86 817.01 688.52 798.00 C 688.53 778.25 682.49 759.09 675.00 741.00 C 669.56 727.56 662.19 714.98 653.88 703.13 C 643.40 688.12 627.76 677.83 616.62 663.39 C 600.17 641.91 590.53 615.70 586.78 589.04 C 585.03 577.29 582.60 565.60 578.49 554.43 C 577.52 551.33 575.86 548.35 575.73 545.07 C 577.32 540.73 580.21 536.94 581.26 532.39 C 583.90 520.08 579.18 506.56 569.34 498.68 C 563.32 493.77 555.44 491.70 549.89 486.14 C 544.37 480.73 539.39 474.49 536.66 467.19 C 534.97 462.69 534.39 457.27 536.96 452.99 C 538.68 449.96 542.29 448.73 544.25 445.95 C 542.07 441.28 538.51 437.43 536.24 432.80 C 529.94 421.32 528.31 407.87 529.06 394.98 C 534.55 398.48 539.74 402.52 545.73 405.19 C 556.46 409.99 568.83 412.60 580.36 409.27 C 592.09 406.18 601.70 396.13 604.05 384.19 C 606.04 374.94 603.25 365.68 601.64 356.61 C 599.28 344.41 600.42 331.31 606.18 320.19 C 610.67 312.00 619.34 305.34 629.03 305.83 C 634.03 305.74 638.64 307.84 643.22 309.55 C 637.88 302.71 629.01 298.12 620.21 299.46 C 613.05 300.42 606.53 304.44 601.56 309.55 C 590.23 322.39 585.96 340.49 588.40 357.24 C 588.96 362.84 590.45 368.34 590.53 373.99 C 590.64 387.12 576.94 397.92 564.20 395.52 C 551.63 393.54 540.20 386.29 531.91 376.80 C 531.92 373.30 533.78 370.10 534.63 366.75 C 538.49 355.16 539.89 342.72 538.28 330.59 C 535.50 315.56 527.77 301.70 517.24 290.72 C 515.79 288.92 513.68 287.33 513.17 285.00 C 513.52 281.65 514.71 278.40 514.58 274.99 C 514.51 268.75 513.67 262.36 515.45 256.25 C 517.73 246.74 524.00 238.49 532.04 233.05 C 538.14 229.07 545.77 227.48 552.92 229.04 C 558.90 230.33 565.15 231.75 571.23 230.11 C 580.72 227.44 588.38 219.57 591.15 210.14 C 594.59 198.89 591.45 186.85 586.43 176.58 C 582.01 167.86 578.26 157.97 580.26 148.05 C 582.35 138.97 587.62 130.67 594.90 124.86 C 598.78 121.50 603.44 119.20 607.26 115.77 C 584.09 116.07 566.18 139.75 568.26 162.03 C 568.70 170.17 572.60 177.45 574.92 185.11 C 577.67 194.27 573.19 205.57 563.93 208.98 C 557.56 211.72 550.68 209.49 544.08 209.31 C 522.61 208.14 501.83 220.85 491.11 239.14 C 485.56 247.75 483.11 257.84 481.45 267.82 C 477.88 267.77 474.48 266.51 470.98 265.94 C 460.80 264.18 450.30 264.11 440.14 266.02 C 436.48 266.63 432.89 267.75 429.17 267.91 C 428.51 264.97 428.33 261.96 427.80 259.00 C 422.85 234.03 401.48 212.35 375.77 209.58 C 368.49 208.48 361.25 210.33 353.97 210.31 C 346.71 210.37 339.75 205.64 337.03 198.93 C 334.72 193.28 335.41 186.88 337.32 181.23 C 339.63 174.62 342.80 168.15 343.23 161.03 C 343.85 150.40 339.77 139.91 333.52 131.45 C 326.65 122.22 315.61 115.47 303.86 115.83 M 298.41 715.58 C 291.82 716.39 284.78 718.07 279.95 722.93 C 278.28 724.43 278.28 726.95 279.10 728.90 C 280.53 729.41 282.24 729.69 283.34 728.37 C 288.47 723.83 294.39 720.08 301.00 718.13 C 306.23 716.66 311.72 716.92 317.10 716.63 C 311.02 714.97 304.63 715.04 298.41 715.58 M 577.87 716.68 C 582.96 716.89 588.16 716.44 593.12 717.90 C 599.16 719.44 604.41 722.97 609.35 726.64 C 610.80 727.62 612.18 728.85 613.93 729.28 C 617.34 728.64 616.60 724.21 614.41 722.56 C 609.11 717.93 601.95 715.80 595.02 715.30 C 589.29 715.19 583.38 714.77 577.87 716.68 M 520.32 853.18 C 516.59 857.55 513.69 862.58 509.82 866.85 C 507.04 870.34 503.55 873.26 501.16 877.05 C 502.24 880.00 504.27 882.46 505.78 885.19 C 510.48 893.19 512.37 902.58 517.90 910.14 C 524.58 920.52 534.93 928.23 546.41 932.58 C 561.29 938.09 578.95 936.33 591.88 926.89 C 598.29 921.94 603.63 915.49 607.05 908.13 C 610.90 899.43 611.42 889.13 607.79 880.27 C 605.10 873.78 599.61 868.30 592.81 866.28 C 587.59 864.77 581.09 865.90 577.90 870.65 C 581.51 870.97 585.41 870.50 588.72 872.32 C 593.97 875.17 596.92 881.15 597.32 886.96 C 597.77 894.02 594.45 900.74 589.98 906.01 C 580.86 916.16 564.06 918.24 553.06 909.91 C 542.49 902.33 537.76 886.48 545.09 875.14 C 547.40 870.59 552.14 868.36 555.76 865.07 C 550.53 859.87 541.42 860.51 536.08 865.19 C 537.58 867.42 540.69 867.33 542.96 868.40 C 538.01 873.23 528.61 871.90 525.14 865.87 C 522.21 862.17 523.47 856.64 520.32 853.18 M 525.78 859.81 C 527.68 863.34 531.95 862.12 535.08 861.44 C 532.05 860.53 528.94 859.89 525.78 859.81 Z" />
<path fill="#000000" opacity="1.00" d=" M 303.86 115.83 C 315.61 115.47 326.65 122.22 333.52 131.45 C 339.77 139.91 343.85 150.40 343.23 161.03 C 342.80 168.15 339.63 174.62 337.32 181.23 C 335.41 186.88 334.72 193.28 337.03 198.93 C 339.75 205.64 346.71 210.37 353.97 210.31 C 361.25 210.33 368.49 208.48 375.77 209.58 C 401.48 212.35 422.85 234.03 427.80 259.00 C 428.33 261.96 428.51 264.97 429.17 267.91 C 432.89 267.75 436.48 266.63 440.14 266.02 C 450.30 264.11 460.80 264.18 470.98 265.94 C 474.48 266.51 477.88 267.77 481.45 267.82 C 483.11 257.84 485.56 247.75 491.11 239.14 C 501.83 220.85 522.61 208.14 544.08 209.31 C 550.68 209.49 557.56 211.72 563.93 208.98 C 573.19 205.57 577.67 194.27 574.92 185.11 C 572.60 177.45 568.70 170.17 568.26 162.03 C 566.18 139.75 584.09 116.07 607.26 115.77 C 603.44 119.20 598.78 121.50 594.90 124.86 C 587.62 130.67 582.35 138.97 580.26 148.05 C 578.26 157.97 582.01 167.86 586.43 176.58 C 591.45 186.85 594.59 198.89 591.15 210.14 C 588.38 219.57 580.72 227.44 571.23 230.11 C 565.15 231.75 558.90 230.33 552.92 229.04 C 545.77 227.48 538.14 229.07 532.04 233.05 C 524.00 238.49 517.73 246.74 515.45 256.25 C 513.67 262.36 514.51 268.75 514.58 274.99 C 514.71 278.40 513.52 281.65 513.17 285.00 C 513.68 287.33 515.79 288.92 517.24 290.72 C 527.77 301.70 535.50 315.56 538.28 330.59 C 539.89 342.72 538.49 355.16 534.63 366.75 C 533.78 370.10 531.92 373.30 531.91 376.80 C 540.20 386.29 551.63 393.54 564.20 395.52 C 576.94 397.92 590.64 387.12 590.53 373.99 C 590.45 368.34 588.96 362.84 588.40 357.24 C 585.96 340.49 590.23 322.39 601.56 309.55 C 606.53 304.44 613.05 300.42 620.21 299.46 C 629.01 298.12 637.88 302.71 643.22 309.55 C 638.64 307.84 634.03 305.74 629.03 305.83 C 619.34 305.34 610.67 312.00 606.18 320.19 C 600.42 331.31 599.28 344.41 601.64 356.61 C 603.25 365.68 606.04 374.94 604.05 384.19 C 601.70 396.13 592.09 406.18 580.36 409.27 C 568.83 412.60 556.46 409.99 545.73 405.19 C 539.74 402.52 534.55 398.48 529.06 394.98 C 528.31 407.87 529.94 421.32 536.24 432.80 C 538.51 437.43 542.07 441.28 544.25 445.95 C 542.29 448.73 538.68 449.96 536.96 452.99 C 534.39 457.27 534.97 462.69 536.66 467.19 C 539.39 474.49 544.37 480.73 549.89 486.14 C 555.44 491.70 563.32 493.77 569.34 498.68 C 579.18 506.56 583.90 520.08 581.26 532.39 C 580.21 536.94 577.32 540.73 575.73 545.07 C 575.86 548.35 577.52 551.33 578.49 554.43 C 582.60 565.60 585.03 577.29 586.78 589.04 C 590.53 615.70 600.17 641.91 616.62 663.39 C 627.76 677.83 643.40 688.12 653.88 703.13 C 662.19 714.98 669.56 727.56 675.00 741.00 C 682.49 759.09 688.53 778.25 688.52 798.00 C 688.86 817.01 684.58 836.72 673.42 852.40 C 669.35 858.30 663.94 863.41 657.36 866.38 C 649.31 870.45 639.06 870.58 631.34 865.68 C 621.63 859.98 618.39 844.87 626.52 836.49 C 630.75 831.90 640.29 830.59 643.54 836.88 C 640.92 836.67 638.13 835.16 635.63 836.64 C 632.62 838.25 631.08 841.74 630.76 845.01 C 630.38 850.42 635.01 855.01 640.04 856.10 C 645.63 857.12 651.70 855.79 656.15 852.20 C 662.03 847.63 665.64 840.75 667.83 833.75 C 671.86 818.56 669.54 802.52 665.25 787.65 C 660.31 772.61 652.96 758.25 643.02 745.90 C 641.66 743.87 638.41 745.47 637.20 743.39 C 637.77 742.56 638.35 741.73 638.93 740.91 C 636.89 737.07 633.94 733.62 630.34 731.17 C 629.47 732.06 628.68 733.02 627.81 733.91 C 625.07 733.27 626.41 729.86 628.66 729.53 C 620.19 719.55 608.29 712.68 595.60 709.66 C 587.19 707.62 578.29 708.64 570.15 711.34 C 565.59 712.81 561.75 715.93 557.08 717.09 C 555.41 711.69 554.40 706.09 552.32 700.82 C 550.63 696.72 549.41 692.18 546.12 689.01 C 547.61 696.99 550.43 704.66 552.11 712.60 C 553.44 721.35 556.60 730.01 555.19 738.98 C 552.02 760.08 546.63 780.81 540.03 801.10 C 535.24 815.09 530.71 829.38 523.20 842.21 C 515.17 853.90 506.07 865.03 495.17 874.18 C 481.66 885.35 465.29 892.08 450.91 901.94 C 442.77 907.99 434.59 914.92 430.51 924.46 C 426.71 932.46 427.48 942.05 431.04 950.00 C 436.42 962.38 445.45 972.65 454.42 982.54 C 456.52 985.03 459.79 987.19 459.85 990.79 C 455.93 991.94 451.86 990.82 447.99 990.03 C 432.13 986.45 417.57 978.27 405.45 967.55 C 395.50 958.21 387.03 946.64 383.77 933.20 C 380.74 921.57 382.08 909.35 384.66 897.77 C 381.13 900.48 380.02 905.03 377.62 908.60 C 369.63 922.06 355.78 931.70 340.44 934.68 C 328.78 937.16 316.19 935.25 306.07 928.86 C 293.77 921.72 284.84 908.38 284.33 894.01 C 284.16 883.88 288.60 872.84 297.80 867.77 C 303.48 864.50 311.13 864.88 316.27 869.05 C 316.23 869.45 316.16 870.24 316.12 870.64 C 312.82 870.88 309.18 870.30 306.28 872.28 C 300.48 875.62 297.29 882.43 297.67 889.03 C 298.38 902.84 310.96 915.19 324.95 914.90 C 339.45 915.93 352.54 903.21 353.42 889.01 C 353.82 882.71 351.90 876.12 347.57 871.43 C 345.21 868.83 341.92 867.38 339.37 865.01 C 343.31 860.93 349.56 861.09 354.65 862.45 C 356.59 863.01 359.17 863.62 359.62 865.97 C 357.70 867.32 355.13 866.92 352.92 867.46 C 353.32 869.89 356.20 870.37 358.15 871.01 C 364.64 872.79 373.02 869.39 374.89 862.62 C 370.02 861.75 364.13 861.41 360.80 857.24 C 369.53 855.85 378.72 854.50 386.02 849.08 C 395.88 842.10 400.67 829.84 400.85 818.05 C 401.40 805.38 395.50 793.12 386.86 784.12 C 383.07 780.04 377.42 778.87 372.67 776.31 C 364.46 772.38 358.76 764.46 355.87 756.00 C 353.05 748.03 353.42 739.16 349.49 731.55 C 344.14 721.25 333.99 714.10 323.01 710.84 C 302.43 704.05 279.42 713.77 265.84 729.69 C 266.54 729.95 267.95 730.45 268.66 730.70 C 269.18 732.18 268.28 734.02 266.52 733.65 C 265.86 732.78 265.22 731.92 264.59 731.06 C 260.60 733.50 257.26 737.27 255.27 741.50 C 256.28 741.93 257.20 742.52 258.01 743.27 C 256.66 744.84 254.51 744.62 252.67 744.95 C 250.29 746.85 248.68 749.50 246.89 751.92 C 233.79 770.67 224.61 792.85 224.32 815.97 C 223.94 824.46 225.50 833.08 229.26 840.73 C 232.26 846.66 236.85 852.10 243.01 854.89 C 248.88 857.43 256.64 857.12 261.14 852.11 C 265.92 847.54 264.34 838.47 258.27 835.80 C 256.00 834.55 253.67 836.25 251.48 836.80 C 252.13 832.93 256.85 832.52 260.02 832.67 C 266.19 833.01 271.09 838.26 272.14 844.17 C 273.97 852.37 269.89 861.46 262.69 865.74 C 254.06 871.16 242.48 870.30 233.99 865.03 C 225.45 860.01 219.31 851.79 214.92 843.06 C 206.10 825.30 204.09 804.85 206.22 785.34 C 208.63 765.96 215.74 747.54 223.93 729.95 C 230.51 715.96 238.88 702.76 249.29 691.31 C 256.21 684.23 263.66 677.63 270.06 670.06 C 288.22 647.99 297.58 619.98 301.88 592.05 C 304.09 575.10 308.61 558.41 315.97 542.95 C 317.29 540.92 315.89 538.76 315.26 536.77 C 310.47 524.50 314.25 509.72 323.72 500.72 C 329.89 494.03 339.40 492.14 345.90 485.87 C 351.34 480.79 355.80 474.58 358.68 467.70 C 360.33 463.22 361.72 457.98 359.54 453.44 C 358.11 450.24 354.69 448.84 352.25 446.59 C 351.98 443.84 354.24 441.70 355.55 439.50 C 364.76 426.70 368.87 410.71 368.03 395.05 C 364.59 396.83 361.74 399.51 358.37 401.39 C 350.01 406.26 340.67 409.63 331.03 410.59 C 320.15 411.59 308.58 408.12 301.04 399.98 C 292.91 391.81 290.67 379.18 293.44 368.24 C 295.49 360.40 298.48 352.84 300.88 345.10 C 303.43 336.57 303.30 326.95 298.93 319.03 C 295.18 311.19 286.87 305.29 277.98 305.87 C 273.76 305.86 269.89 307.64 265.98 308.99 C 270.48 303.23 277.56 299.15 284.99 299.25 C 291.04 299.02 296.90 301.70 301.43 305.57 C 310.74 314.26 315.14 327.46 314.24 340.03 C 313.41 351.11 307.29 360.96 306.34 372.01 C 305.67 379.27 309.24 386.62 315.10 390.87 C 321.82 396.18 331.24 396.58 339.17 394.15 C 350.04 390.90 359.55 383.99 367.38 375.94 C 367.15 366.93 364.74 358.07 365.09 349.01 C 364.71 324.57 377.92 301.68 395.96 285.93 C 397.74 284.85 397.03 282.69 396.90 281.01 C 395.56 273.00 398.11 264.82 396.13 256.87 C 392.98 243.96 383.04 232.23 369.82 229.09 C 360.55 226.79 351.49 232.08 342.19 230.51 C 329.89 228.53 320.05 217.29 318.85 205.02 C 317.18 194.39 321.44 184.18 325.82 174.75 C 329.78 166.43 333.20 157.12 331.11 147.79 C 328.52 137.88 322.44 128.88 314.14 122.84 C 310.84 120.31 306.97 118.62 303.86 115.83 M 402.39 313.48 C 393.75 316.14 386.82 324.80 387.57 334.04 C 388.02 345.11 397.02 355.27 408.10 356.60 C 419.69 357.96 431.13 347.68 430.99 336.00 C 431.37 321.85 416.34 308.93 402.39 313.48 M 498.32 313.17 C 488.44 315.03 480.30 323.89 479.63 333.98 C 478.25 345.41 488.32 357.02 499.98 356.56 C 513.28 356.84 524.60 343.21 522.57 330.21 C 521.48 318.98 509.28 310.39 498.32 313.17 M 389.22 366.01 C 388.77 369.72 387.66 373.96 389.69 377.39 C 390.91 375.85 391.89 374.05 393.58 372.94 C 393.62 377.73 392.60 382.85 395.09 387.25 C 397.67 385.05 399.63 382.13 400.93 379.01 C 399.65 376.23 396.93 374.39 395.13 371.95 C 393.18 369.96 391.99 367.01 389.22 366.01 M 506.26 377.28 C 502.36 382.40 497.00 386.06 491.80 389.75 C 487.90 392.52 483.13 393.61 479.08 396.09 C 480.39 401.29 482.74 406.17 484.94 411.05 C 485.88 412.61 486.59 415.12 488.84 414.95 C 491.38 407.81 489.59 400.19 488.14 393.03 C 490.02 396.08 491.41 399.45 493.75 402.22 C 494.63 402.96 495.49 404.72 496.90 404.08 C 497.55 399.69 497.31 395.26 497.31 390.85 C 498.82 394.14 499.78 397.73 501.93 400.71 C 504.58 400.47 504.08 397.32 504.68 395.45 C 505.72 390.98 504.87 386.44 504.05 382.03 C 505.90 384.61 507.30 387.65 510.02 389.48 C 513.01 384.86 511.00 379.15 511.10 374.05 C 512.82 375.00 514.05 378.59 516.23 377.32 C 517.23 373.60 517.25 369.69 516.98 365.88 C 512.60 368.84 509.87 373.52 506.26 377.28 M 399.21 394.66 C 401.50 394.74 402.93 391.86 404.87 390.76 C 404.79 394.47 404.26 398.21 405.01 401.89 C 405.42 401.80 406.25 401.63 406.66 401.55 C 409.88 398.04 410.39 392.93 412.80 388.90 C 412.62 395.10 410.20 401.26 411.67 407.46 C 412.75 407.80 413.90 407.56 414.62 406.64 C 418.18 403.37 420.17 398.86 423.01 395.03 C 421.77 402.14 419.94 409.68 422.27 416.77 C 422.61 416.72 423.30 416.61 423.64 416.56 C 426.19 413.63 427.70 409.96 429.31 406.46 C 430.50 403.47 432.05 400.33 431.51 397.02 C 429.17 395.17 426.08 394.76 423.43 393.52 C 415.94 390.13 409.19 385.34 402.90 380.09 C 400.35 384.38 397.90 389.60 399.21 394.66 M 432.98 397.26 C 431.19 402.91 432.23 408.94 432.55 414.74 C 432.97 417.03 432.77 419.75 434.24 421.66 C 436.27 421.24 437.48 419.23 438.70 417.71 C 441.41 413.59 443.87 409.24 445.54 404.59 C 445.71 403.24 447.02 401.50 445.81 400.36 C 441.61 399.05 437.31 398.02 432.98 397.26 M 465.76 400.17 C 466.14 405.12 468.94 409.44 471.19 413.74 C 472.93 416.55 474.46 420.16 477.91 421.20 C 479.86 418.93 479.26 415.72 479.54 412.96 C 479.46 407.45 480.23 401.66 478.15 396.41 C 473.93 397.31 469.74 398.50 465.76 400.17 M 449.24 400.50 L 448.77 401.18 C 448.55 407.31 450.37 413.32 451.91 419.20 C 452.79 421.67 453.44 424.73 456.02 425.99 C 459.82 422.33 460.96 416.94 462.17 412.02 C 462.91 408.18 464.14 404.34 463.89 400.40 C 459.00 400.33 454.11 400.34 449.24 400.50 M 337.35 499.62 C 328.71 502.36 321.25 509.71 319.67 518.84 C 316.68 529.55 322.30 542.22 332.80 546.34 C 341.30 549.86 351.61 546.23 356.98 539.00 C 361.03 533.93 363.24 527.45 362.86 520.95 C 362.96 508.24 350.18 496.41 337.35 499.62 M 550.41 499.60 C 542.53 500.99 536.25 507.48 533.87 514.95 C 528.78 529.47 540.26 547.61 556.00 547.81 C 568.16 547.94 577.36 535.58 576.51 524.00 C 576.64 510.64 564.21 497.38 550.41 499.60 M 372.37 541.58 C 360.31 544.52 350.55 556.43 351.09 569.02 C 350.69 584.76 365.18 599.24 381.02 598.34 C 395.56 597.92 407.96 584.44 407.69 570.01 C 408.16 552.41 389.76 536.58 372.37 541.58 M 511.32 541.22 C 496.15 543.77 485.12 559.71 487.57 574.80 C 489.97 587.21 501.09 597.91 513.97 598.40 C 529.74 599.26 544.32 584.74 543.78 569.00 C 544.49 552.48 527.62 537.75 511.32 541.22 M 440.43 563.67 C 426.32 567.00 415.82 581.58 417.32 596.05 C 418.48 611.20 432.69 624.28 447.99 623.51 C 463.72 623.83 477.45 609.46 477.84 594.03 C 478.26 583.94 472.83 574.03 464.61 568.33 C 457.79 563.21 448.65 561.87 440.43 563.67 M 337.13 587.07 C 331.61 599.18 326.86 611.64 322.15 624.08 C 326.64 621.75 329.65 617.47 332.52 613.45 C 336.18 607.40 339.77 601.04 340.81 593.95 C 341.45 589.21 341.66 584.38 341.11 579.63 C 338.91 581.51 338.40 584.57 337.13 587.07 M 546.38 585.84 C 544.84 595.50 545.04 605.72 549.08 614.79 C 551.59 622.11 556.52 628.18 559.96 635.03 C 561.94 638.76 562.35 643.01 563.05 647.11 C 563.40 648.51 563.47 650.35 565.03 651.01 C 569.26 653.24 574.00 654.36 578.72 655.03 C 569.92 643.40 563.45 630.15 558.47 616.48 C 554.55 606.24 551.87 595.38 546.38 585.84 M 336.39 625.65 C 328.95 627.17 322.44 632.81 320.37 640.19 C 318.30 648.24 319.91 657.31 325.16 663.85 C 330.15 670.68 338.26 676.11 347.03 675.15 C 357.24 674.20 365.66 665.13 366.43 655.01 C 368.03 638.98 352.63 622.98 336.39 625.65 M 532.42 626.67 C 520.54 629.85 511.09 641.50 511.53 654.01 C 510.83 664.88 520.06 675.34 531.00 675.70 C 539.60 676.37 547.59 671.20 552.50 664.46 C 557.74 657.83 559.92 648.63 557.33 640.48 C 553.86 630.57 542.72 624.21 532.42 626.67 M 439.39 653.62 C 426.00 656.26 414.85 669.11 416.20 683.08 C 416.71 698.95 434.18 710.98 449.27 706.41 C 461.75 703.72 471.19 691.69 471.39 679.02 C 471.43 670.67 466.77 662.74 460.12 657.88 C 454.20 653.60 446.50 652.25 439.39 653.62 M 323.05 674.03 C 325.41 683.65 328.74 693.32 334.99 701.15 C 332.88 694.52 329.62 688.34 327.10 681.88 C 326.03 679.12 324.86 676.38 323.05 674.03 M 534.39 720.57 C 527.86 723.07 522.70 728.70 520.05 735.10 C 518.26 740.43 518.59 747.06 522.73 751.26 C 526.45 755.64 533.10 756.48 538.22 754.29 C 548.13 750.22 554.73 737.70 550.51 727.44 C 548.17 721.27 540.43 718.30 534.39 720.57 M 377.42 728.62 C 371.41 729.68 365.85 733.54 363.13 739.06 C 359.57 745.76 360.24 754.34 364.50 760.57 C 370.25 769.22 380.52 775.04 391.03 774.41 C 402.03 774.16 411.06 762.73 409.03 751.97 C 406.39 737.85 391.98 726.14 377.42 728.62 M 513.44 817.63 C 505.69 819.86 498.99 827.58 500.12 835.96 C 500.52 840.95 506.16 844.34 510.83 842.93 C 516.49 841.33 520.84 836.79 523.73 831.85 C 525.85 828.33 526.26 823.54 523.94 820.04 C 521.46 816.99 516.99 816.75 513.44 817.63 Z" />
<path fill="#fefffe" opacity="1.00" d=" M 402.39 313.48 C 416.34 308.93 431.37 321.85 430.99 336.00 C 431.13 347.68 419.69 357.96 408.10 356.60 C 397.02 355.27 388.02 345.11 387.57 334.04 C 386.82 324.80 393.75 316.14 402.39 313.48 M 403.46 322.57 C 395.84 325.06 393.77 336.81 400.96 341.06 C 407.02 346.26 417.23 341.73 417.77 333.91 C 418.67 326.35 410.54 320.21 403.46 322.57 Z" />
<path fill="#fefffe" opacity="1.00" d=" M 498.32 313.17 C 509.28 310.39 521.48 318.98 522.57 330.21 C 524.60 343.21 513.28 356.84 499.98 356.56 C 488.32 357.02 478.25 345.41 479.63 333.98 C 480.30 323.89 488.44 315.03 498.32 313.17 M 500.48 322.64 C 495.04 324.48 491.79 330.95 493.56 336.42 C 494.98 340.74 499.58 343.46 504.01 343.38 C 509.39 343.17 514.14 338.36 514.43 333.02 C 514.34 329.81 512.96 326.60 510.53 324.48 C 507.80 322.14 503.85 321.78 500.48 322.64 Z" />
<path fill="#000000" opacity="1.00" d=" M 403.46 322.57 C 410.54 320.21 418.67 326.35 417.77 333.91 C 417.23 341.73 407.02 346.26 400.96 341.06 C 393.77 336.81 395.84 325.06 403.46 322.57 Z" />
<path fill="#000000" opacity="1.00" d=" M 500.48 322.64 C 503.85 321.78 507.80 322.14 510.53 324.48 C 512.96 326.60 514.34 329.81 514.43 333.02 C 514.14 338.36 509.39 343.17 504.01 343.38 C 499.58 343.46 494.98 340.74 493.56 336.42 C 491.79 330.95 495.04 324.48 500.48 322.64 Z" />
<path fill="#fefffe" opacity="1.00" d=" M 389.22 366.01 C 391.99 367.01 393.18 369.96 395.13 371.95 C 396.93 374.39 399.65 376.23 400.93 379.01 C 399.63 382.13 397.67 385.05 395.09 387.25 C 392.60 382.85 393.62 377.73 393.58 372.94 C 391.89 374.05 390.91 375.85 389.69 377.39 C 387.66 373.96 388.77 369.72 389.22 366.01 Z" />
<path fill="#fefffe" opacity="1.00" d=" M 506.26 377.28 C 509.87 373.52 512.60 368.84 516.98 365.88 C 517.25 369.69 517.23 373.60 516.23 377.32 C 514.05 378.59 512.82 375.00 511.10 374.05 C 511.00 379.15 513.01 384.86 510.02 389.48 C 507.30 387.65 505.90 384.61 504.05 382.03 C 504.87 386.44 505.72 390.98 504.68 395.45 C 504.08 397.32 504.58 400.47 501.93 400.71 C 499.78 397.73 498.82 394.14 497.31 390.85 C 497.31 395.26 497.55 399.69 496.90 404.08 C 495.49 404.72 494.63 402.96 493.75 402.22 C 491.41 399.45 490.02 396.08 488.14 393.03 C 489.59 400.19 491.38 407.81 488.84 414.95 C 486.59 415.12 485.88 412.61 484.94 411.05 C 482.74 406.17 480.39 401.29 479.08 396.09 C 483.13 393.61 487.90 392.52 491.80 389.75 C 497.00 386.06 502.36 382.40 506.26 377.28 Z" />
<path fill="#fefffe" opacity="1.00" d=" M 399.21 394.66 C 397.90 389.60 400.35 384.38 402.90 380.09 C 409.19 385.34 415.94 390.13 423.43 393.52 C 426.08 394.76 429.17 395.17 431.51 397.02 C 432.05 400.33 430.50 403.47 429.31 406.46 C 427.70 409.96 426.19 413.63 423.64 416.56 C 423.30 416.61 422.61 416.72 422.27 416.77 C 419.94 409.68 421.77 402.14 423.01 395.03 C 420.17 398.86 418.18 403.37 414.62 406.64 C 413.90 407.56 412.75 407.80 411.67 407.46 C 410.20 401.26 412.62 395.10 412.80 388.90 C 410.39 392.93 409.88 398.04 406.66 401.55 C 406.25 401.63 405.42 401.80 405.01 401.89 C 404.26 398.21 404.79 394.47 404.87 390.76 C 402.93 391.86 401.50 394.74 399.21 394.66 Z" />
<path fill="#fefffe" opacity="1.00" d=" M 432.98 397.26 C 437.31 398.02 441.61 399.05 445.81 400.36 C 447.02 401.50 445.71 403.24 445.54 404.59 C 443.87 409.24 441.41 413.59 438.70 417.71 C 437.48 419.23 436.27 421.24 434.24 421.66 C 432.77 419.75 432.97 417.03 432.55 414.74 C 432.23 408.94 431.19 402.91 432.98 397.26 Z" />
<path fill="#fefffe" opacity="1.00" d=" M 465.76 400.17 C 469.74 398.50 473.93 397.31 478.15 396.41 C 480.23 401.66 479.46 407.45 479.54 412.96 C 479.26 415.72 479.86 418.93 477.91 421.20 C 474.46 420.16 472.93 416.55 471.19 413.74 C 468.94 409.44 466.14 405.12 465.76 400.17 Z" />
<path fill="#fefffe" opacity="1.00" d=" M 449.24 400.50 C 454.11 400.34 459.00 400.33 463.89 400.40 C 464.14 404.34 462.91 408.18 462.17 412.02 C 460.96 416.94 459.82 422.33 456.02 425.99 C 453.44 424.73 452.79 421.67 451.91 419.20 C 450.37 413.32 448.55 407.31 448.77 401.18 L 449.24 400.50 Z" />
<path fill="#fefffe" opacity="1.00" d=" M 337.35 499.62 C 350.18 496.41 362.96 508.24 362.86 520.95 C 363.24 527.45 361.03 533.93 356.98 539.00 C 351.61 546.23 341.30 549.86 332.80 546.34 C 322.30 542.22 316.68 529.55 319.67 518.84 C 321.25 509.71 328.71 502.36 337.35 499.62 M 335.38 510.41 C 326.19 512.87 323.45 528.13 332.38 532.64 C 339.88 536.19 347.83 528.52 347.35 521.00 C 347.53 514.93 341.69 508.61 335.38 510.41 Z" />
<path fill="#fefffe" opacity="1.00" d=" M 550.41 499.60 C 564.21 497.38 576.64 510.64 576.51 524.00 C 577.36 535.58 568.16 547.94 556.00 547.81 C 540.26 547.61 528.78 529.47 533.87 514.95 C 536.25 507.48 542.53 500.99 550.41 499.60 M 554.33 511.25 C 546.26 515.26 546.73 528.34 554.57 532.43 C 560.55 536.47 568.66 530.85 568.48 524.04 C 569.43 516.69 562.03 507.93 554.33 511.25 Z" />
<path fill="#000000" opacity="1.00" d=" M 335.38 510.41 C 341.69 508.61 347.53 514.93 347.35 521.00 C 347.83 528.52 339.88 536.19 332.38 532.64 C 323.45 528.13 326.19 512.87 335.38 510.41 Z" />
<path fill="#000000" opacity="1.00" d=" M 554.33 511.25 C 562.03 507.93 569.43 516.69 568.48 524.04 C 568.66 530.85 560.55 536.47 554.57 532.43 C 546.73 528.34 546.26 515.26 554.33 511.25 Z" />
<path fill="#fefffe" opacity="1.00" d=" M 372.37 541.58 C 389.76 536.58 408.16 552.41 407.69 570.01 C 407.96 584.44 395.56 597.92 381.02 598.34 C 365.18 599.24 350.69 584.76 351.09 569.02 C 350.55 556.43 360.31 544.52 372.37 541.58 M 373.41 555.53 C 367.22 556.67 362.32 562.71 362.48 569.02 C 362.15 576.26 368.85 582.70 376.01 582.52 C 383.57 582.99 389.73 575.24 388.84 568.00 C 388.59 560.46 380.94 553.89 373.41 555.53 Z" />
<path fill="#fefffe" opacity="1.00" d=" M 511.32 541.22 C 527.62 537.75 544.49 552.48 543.78 569.00 C 544.32 584.74 529.74 599.26 513.97 598.40 C 501.09 597.91 489.97 587.21 487.57 574.80 C 485.12 559.71 496.15 543.77 511.32 541.22 M 516.45 555.61 C 510.68 557.24 506.08 562.89 506.20 568.98 C 505.78 576.06 511.98 582.63 519.03 582.78 C 526.76 583.31 533.55 575.56 532.33 567.96 C 532.33 560.12 524.04 553.71 516.45 555.61 Z" />
<path fill="#000000" opacity="1.00" d=" M 373.41 555.53 C 380.94 553.89 388.59 560.46 388.84 568.00 C 389.73 575.24 383.57 582.99 376.01 582.52 C 368.85 582.70 362.15 576.26 362.48 569.02 C 362.32 562.71 367.22 556.67 373.41 555.53 Z" />
<path fill="#000000" opacity="1.00" d=" M 516.45 555.61 C 524.04 553.71 532.33 560.12 532.33 567.96 C 533.55 575.56 526.76 583.31 519.03 582.78 C 511.98 582.63 505.78 576.06 506.20 568.98 C 506.08 562.89 510.68 557.24 516.45 555.61 Z" />
<path fill="#fefffe" opacity="1.00" d=" M 440.43 563.67 C 448.65 561.87 457.79 563.21 464.61 568.33 C 472.83 574.03 478.26 583.94 477.84 594.03 C 477.45 609.46 463.72 623.83 447.99 623.51 C 432.69 624.28 418.48 611.20 417.32 596.05 C 415.82 581.58 426.32 567.00 440.43 563.67 M 443.42 580.63 C 437.33 582.36 433.14 588.74 433.72 595.00 C 434.26 602.68 442.15 609.01 449.78 607.62 C 458.09 606.37 463.98 596.40 460.21 588.67 C 457.52 582.31 450.02 578.93 443.42 580.63 Z" />
<path fill="#fefffe" opacity="1.00" d=" M 337.13 587.07 C 338.40 584.57 338.91 581.51 341.11 579.63 C 341.66 584.38 341.45 589.21 340.81 593.95 C 339.77 601.04 336.18 607.40 332.52 613.45 C 329.65 617.47 326.64 621.75 322.15 624.08 C 326.86 611.64 331.61 599.18 337.13 587.07 Z" />
<path fill="#000000" opacity="1.00" d=" M 443.42 580.63 C 450.02 578.93 457.52 582.31 460.21 588.67 C 463.98 596.40 458.09 606.37 449.78 607.62 C 442.15 609.01 434.26 602.68 433.72 595.00 C 433.14 588.74 437.33 582.36 443.42 580.63 Z" />
<path fill="#fefffe" opacity="1.00" d=" M 546.38 585.84 C 551.87 595.38 554.55 606.24 558.47 616.48 C 563.45 630.15 569.92 643.40 578.72 655.03 C 574.00 654.36 569.26 653.24 565.03 651.01 C 563.47 650.35 563.40 648.51 563.05 647.11 C 562.35 643.01 561.94 638.76 559.96 635.03 C 556.52 628.18 551.59 622.11 549.08 614.79 C 545.04 605.72 544.84 595.50 546.38 585.84 Z" />
<path fill="#fefffe" opacity="1.00" d=" M 336.39 625.65 C 352.63 622.98 368.03 638.98 366.43 655.01 C 365.66 665.13 357.24 674.20 347.03 675.15 C 338.26 676.11 330.15 670.68 325.16 663.85 C 319.91 657.31 318.30 648.24 320.37 640.19 C 322.44 632.81 328.95 627.17 336.39 625.65 M 334.42 639.51 C 331.49 640.65 329.37 643.42 328.60 646.42 C 326.50 653.91 332.41 662.18 340.10 662.80 C 346.41 663.82 352.13 657.18 350.80 651.08 C 349.77 643.83 341.91 636.78 334.42 639.51 Z" />
<path fill="#fefffe" opacity="1.00" d=" M 532.42 626.67 C 542.72 624.21 553.86 630.57 557.33 640.48 C 559.92 648.63 557.74 657.83 552.50 664.46 C 547.59 671.20 539.60 676.37 531.00 675.70 C 520.06 675.34 510.83 664.88 511.53 654.01 C 511.09 641.50 520.54 629.85 532.42 626.67 M 536.32 640.26 C 530.30 642.27 526.25 648.75 526.75 655.01 C 527.42 660.99 534.32 664.96 539.93 663.15 C 546.05 661.08 550.80 654.60 549.38 647.99 C 548.89 641.93 541.86 637.87 536.32 640.26 Z" />
<path fill="#000000" opacity="1.00" d=" M 334.42 639.51 C 341.91 636.78 349.77 643.83 350.80 651.08 C 352.13 657.18 346.41 663.82 340.10 662.80 C 332.41 662.18 326.50 653.91 328.60 646.42 C 329.37 643.42 331.49 640.65 334.42 639.51 Z" />
<path fill="#000000" opacity="1.00" d=" M 536.32 640.26 C 541.86 637.87 548.89 641.93 549.38 647.99 C 550.80 654.60 546.05 661.08 539.93 663.15 C 534.32 664.96 527.42 660.99 526.75 655.01 C 526.25 648.75 530.30 642.27 536.32 640.26 Z" />
<path fill="#fefffe" opacity="1.00" d=" M 439.39 653.62 C 446.50 652.25 454.20 653.60 460.12 657.88 C 466.77 662.74 471.43 670.67 471.39 679.02 C 471.19 691.69 461.75 703.72 449.27 706.41 C 434.18 710.98 416.71 698.95 416.20 683.08 C 414.85 669.11 426.00 656.26 439.39 653.62 M 440.33 668.29 C 434.06 670.04 429.53 676.50 430.65 683.04 C 431.11 688.84 436.64 693.00 442.09 693.66 C 449.78 694.49 457.19 687.69 457.02 679.96 C 457.20 671.83 447.86 665.59 440.33 668.29 Z" />
<path fill="#000000" opacity="1.00" d=" M 440.33 668.29 C 447.86 665.59 457.20 671.83 457.02 679.96 C 457.19 687.69 449.78 694.49 442.09 693.66 C 436.64 693.00 431.11 688.84 430.65 683.04 C 429.53 676.50 434.06 670.04 440.33 668.29 Z" />
<path fill="#fefffe" opacity="1.00" d=" M 323.05 674.03 C 324.86 676.38 326.03 679.12 327.10 681.88 C 329.62 688.34 332.88 694.52 334.99 701.15 C 328.74 693.32 325.41 683.65 323.05 674.03 Z" />
<path fill="#000000" opacity="1.00" d=" M 298.41 715.58 C 304.63 715.04 311.02 714.97 317.10 716.63 C 311.72 716.92 306.23 716.66 301.00 718.13 C 294.39 720.08 288.47 723.83 283.34 728.37 C 282.24 729.69 280.53 729.41 279.10 728.90 C 278.28 726.95 278.28 724.43 279.95 722.93 C 284.78 718.07 291.82 716.39 298.41 715.58 Z" />
<path fill="#000000" opacity="1.00" d=" M 577.87 716.68 C 583.38 714.77 589.29 715.19 595.02 715.30 C 601.95 715.80 609.11 717.93 614.41 722.56 C 616.60 724.21 617.34 728.64 613.93 729.28 C 612.18 728.85 610.80 727.62 609.35 726.64 C 604.41 722.97 599.16 719.44 593.12 717.90 C 588.16 716.44 582.96 716.89 577.87 716.68 Z" />
<path fill="#fefffe" opacity="1.00" d=" M 534.39 720.57 C 540.43 718.30 548.17 721.27 550.51 727.44 C 554.73 737.70 548.13 750.22 538.22 754.29 C 533.10 756.48 526.45 755.64 522.73 751.26 C 518.59 747.06 518.26 740.43 520.05 735.10 C 522.70 728.70 527.86 723.07 534.39 720.57 M 537.50 729.61 C 531.18 731.89 527.37 741.25 532.70 746.29 C 538.51 749.96 545.50 743.82 546.33 737.95 C 547.66 733.04 542.41 727.68 537.50 729.61 Z" />
<path fill="#fefffe" opacity="1.00" d=" M 377.42 728.62 C 391.98 726.14 406.39 737.85 409.03 751.97 C 411.06 762.73 402.03 774.16 391.03 774.41 C 380.52 775.04 370.25 769.22 364.50 760.57 C 360.24 754.34 359.57 745.76 363.13 739.06 C 365.85 733.54 371.41 729.68 377.42 728.62 M 375.45 742.59 C 371.09 744.38 368.58 750.05 370.57 754.41 C 373.15 760.61 380.11 764.76 386.80 763.67 C 392.50 762.70 396.19 755.65 393.40 750.47 C 390.22 744.26 382.24 740.17 375.45 742.59 Z" />
<path fill="#000000" opacity="1.00" d=" M 537.50 729.61 C 542.41 727.68 547.66 733.04 546.33 737.95 C 545.50 743.82 538.51 749.96 532.70 746.29 C 527.37 741.25 531.18 731.89 537.50 729.61 Z" />
<path fill="#000000" opacity="1.00" d=" M 375.45 742.59 C 382.24 740.17 390.22 744.26 393.40 750.47 C 396.19 755.65 392.50 762.70 386.80 763.67 C 380.11 764.76 373.15 760.61 370.57 754.41 C 368.58 750.05 371.09 744.38 375.45 742.59 Z" />
<path fill="#fefffe" opacity="1.00" d=" M 513.44 817.63 C 516.99 816.75 521.46 816.99 523.94 820.04 C 526.26 823.54 525.85 828.33 523.73 831.85 C 520.84 836.79 516.49 841.33 510.83 842.93 C 506.16 844.34 500.52 840.95 500.12 835.96 C 498.99 827.58 505.69 819.86 513.44 817.63 M 514.34 825.23 C 510.09 826.42 506.38 832.46 509.88 836.15 C 515.13 839.20 522.14 832.71 520.11 827.20 C 519.41 824.78 516.37 824.25 514.34 825.23 Z" />
<path fill="#000000" opacity="1.00" d=" M 514.34 825.23 C 516.37 824.25 519.41 824.78 520.11 827.20 C 522.14 832.71 515.13 839.20 509.88 836.15 C 506.38 832.46 510.09 826.42 514.34 825.23 Z" />
<path fill="#000000" opacity="1.00" d=" M 520.32 853.18 C 523.47 856.64 522.21 862.17 525.14 865.87 C 528.61 871.90 538.01 873.23 542.96 868.40 C 540.69 867.33 537.58 867.42 536.08 865.19 C 541.42 860.51 550.53 859.87 555.76 865.07 C 552.14 868.36 547.40 870.59 545.09 875.14 C 537.76 886.48 542.49 902.33 553.06 909.91 C 564.06 918.24 580.86 916.16 589.98 906.01 C 594.45 900.74 597.77 894.02 597.32 886.96 C 596.92 881.15 593.97 875.17 588.72 872.32 C 585.41 870.50 581.51 870.97 577.90 870.65 C 581.09 865.90 587.59 864.77 592.81 866.28 C 599.61 868.30 605.10 873.78 607.79 880.27 C 611.42 889.13 610.90 899.43 607.05 908.13 C 603.63 915.49 598.29 921.94 591.88 926.89 C 578.95 936.33 561.29 938.09 546.41 932.58 C 534.93 928.23 524.58 920.52 517.90 910.14 C 512.37 902.58 510.48 893.19 505.78 885.19 C 504.27 882.46 502.24 880.00 501.16 877.05 C 503.55 873.26 507.04 870.34 509.82 866.85 C 513.69 862.58 516.59 857.55 520.32 853.18 Z" />
<path fill="#000000" opacity="1.00" d=" M 525.78 859.81 C 528.94 859.89 532.05 860.53 535.08 861.44 C 531.95 862.12 527.68 863.34 525.78 859.81 Z" />
</svg>
