<?xml version="1.0" encoding="UTF-8" ?>
<!DOCTYPE svg PUBLIC "-//W3C//DTD SVG 1.1//EN" "http://www.w3.org/Graphics/SVG/1.1/DTD/svg11.dtd">
<svg width="896pt" height="1152pt" viewBox="0 0 896 1152" version="1.1" xmlns="http://www.w3.org/2000/svg">
<path fill="#000000" opacity="1.00" d=" M 303.46 115.72 C 315.82 115.26 327.38 122.63 334.31 132.54 C 341.42 142.63 345.56 155.80 341.95 168.00 C 340.00 176.05 335.08 183.47 335.57 192.02 C 335.57 199.75 340.97 207.06 348.34 209.37 C 353.39 211.01 358.74 210.19 363.90 209.60 C 373.46 208.49 383.23 210.16 392.04 213.96 C 413.01 223.45 428.00 245.06 428.92 268.14 C 437.86 266.46 446.83 264.28 456.00 264.62 C 464.57 264.53 473.06 266.03 481.28 268.37 C 483.22 257.52 485.86 246.47 492.29 237.30 C 503.14 219.95 523.34 208.32 543.98 209.31 C 550.80 209.51 557.98 211.88 564.50 208.75 C 573.14 205.22 577.34 194.74 575.11 185.95 C 573.14 178.25 568.90 171.17 568.37 163.10 C 565.57 140.23 584.23 115.45 608.08 115.78 C 601.75 119.74 595.34 123.78 590.19 129.25 C 582.84 137.51 577.83 148.94 580.38 160.10 C 581.63 168.82 586.93 176.13 589.60 184.38 C 593.10 193.48 594.04 204.09 590.01 213.18 C 586.37 222.25 577.80 229.36 568.05 230.68 C 559.57 231.92 551.48 227.04 543.00 228.75 C 529.22 231.31 518.42 243.48 515.36 256.86 C 512.58 266.16 516.86 276.21 512.65 285.25 C 514.99 288.27 517.60 291.08 520.16 293.92 C 530.31 305.75 537.75 320.43 538.88 336.14 C 539.56 348.10 537.14 360.03 533.14 371.27 C 532.63 373.13 531.56 374.97 531.80 376.95 C 540.58 386.29 552.01 394.04 564.99 395.59 C 576.87 397.41 589.28 387.93 590.44 375.92 C 591.13 370.20 589.19 364.62 588.61 358.97 C 586.32 344.71 588.45 329.41 596.16 317.04 C 600.77 308.47 609.07 301.81 618.61 299.73 C 627.91 297.66 637.64 302.30 643.31 309.64 C 637.42 307.05 630.97 304.90 624.46 306.16 C 614.46 308.04 606.71 316.45 603.69 325.90 C 600.57 334.18 599.89 343.23 600.90 351.98 C 602.38 363.20 606.77 374.58 603.57 385.92 C 601.45 394.71 595.21 402.06 587.46 406.50 C 578.09 411.28 566.94 411.84 556.89 409.05 C 546.50 406.71 537.30 401.00 528.94 394.61 C 528.55 405.34 529.34 416.37 533.32 426.45 C 535.93 433.65 540.63 439.76 544.66 446.18 C 540.88 449.01 536.18 451.77 535.46 456.91 C 534.07 466.75 540.37 475.45 546.40 482.55 C 550.86 488.06 557.06 491.61 563.32 494.72 C 573.88 500.05 581.23 511.17 581.84 523.01 C 583.06 530.95 579.37 538.42 575.40 545.03 C 577.42 552.06 580.25 558.84 582.10 565.93 C 585.97 579.76 586.92 594.21 590.52 608.10 C 595.27 627.29 603.58 645.69 615.27 661.66 C 626.39 676.77 642.52 687.27 653.44 702.53 C 662.26 714.95 669.97 728.23 675.56 742.42 C 681.60 756.99 686.41 772.23 688.02 787.98 C 690.01 807.17 687.22 827.10 678.43 844.40 C 673.65 852.93 667.61 861.44 658.53 865.77 C 650.49 870.24 639.99 870.87 631.96 866.06 C 622.74 861.03 618.67 847.70 624.75 838.79 C 627.97 833.18 636.09 830.68 641.63 834.33 C 642.85 835.03 643.33 836.46 643.86 837.69 C 641.86 837.21 640.11 835.51 638.00 835.80 C 630.82 837.16 628.28 847.64 633.63 852.43 C 638.44 857.64 646.67 857.28 652.65 854.45 C 659.51 850.82 664.05 844.00 666.77 836.91 C 670.11 827.65 670.38 817.58 669.45 807.88 C 667.58 791.15 661.57 775.11 653.17 760.60 C 649.24 754.51 645.55 748.14 640.29 743.08 C 640.34 743.71 640.43 744.96 640.48 745.59 C 639.02 744.86 636.75 744.38 636.99 742.29 C 637.78 742.32 639.36 742.38 640.15 742.41 C 637.35 737.91 633.94 733.85 629.91 730.40 C 629.13 731.61 629.32 734.42 627.21 733.91 C 626.08 733.10 626.08 731.77 626.20 730.55 C 626.97 730.42 628.49 730.17 629.26 730.05 C 620.82 720.38 609.54 713.14 597.05 710.05 C 588.56 707.64 579.41 708.30 571.10 711.07 C 566.08 712.63 561.69 715.60 556.88 717.66 C 555.41 709.40 552.91 701.31 549.38 693.70 C 548.55 691.84 547.39 690.16 546.08 688.63 C 547.76 697.84 551.28 706.62 552.66 715.90 C 553.46 721.31 555.51 726.52 555.48 732.05 C 555.79 737.11 554.83 742.12 553.86 747.06 C 549.85 770.10 543.13 792.57 535.45 814.62 C 530.96 825.68 527.35 837.40 519.91 846.95 C 511.40 858.30 502.18 869.41 490.56 877.72 C 477.90 887.11 463.26 893.28 450.37 902.31 C 441.39 909.02 432.44 917.07 429.13 928.16 C 426.23 937.59 429.13 947.71 433.98 955.97 C 440.39 967.39 449.36 977.07 458.19 986.64 C 459.40 987.79 459.63 989.46 459.89 991.04 C 453.60 991.96 447.40 989.89 441.42 988.22 C 428.89 984.48 417.54 977.59 407.48 969.36 C 395.23 958.64 385.18 944.43 382.67 928.06 C 381.23 917.70 381.95 906.89 385.33 896.96 C 381.23 900.00 380.08 905.26 377.21 909.26 C 368.76 923.10 353.99 932.78 337.95 935.11 C 315.22 939.25 290.43 923.94 285.30 901.16 C 282.92 891.59 285.11 881.00 291.17 873.22 C 295.05 868.67 300.80 865.14 306.98 865.64 C 310.39 865.47 313.36 867.26 316.23 868.85 C 316.37 869.34 316.66 870.31 316.80 870.79 C 313.28 870.71 309.38 870.12 306.30 872.26 C 300.24 875.77 297.07 883.08 297.71 889.93 C 298.93 903.76 311.93 915.73 325.99 914.91 C 340.50 915.41 353.09 902.21 353.48 888.01 C 353.65 882.02 351.69 875.86 347.57 871.45 C 345.20 868.68 341.83 867.14 338.90 865.10 C 344.63 860.01 353.20 861.01 359.47 864.52 C 359.48 865.03 359.50 866.05 359.51 866.56 C 357.02 866.95 354.50 867.19 352.02 867.66 C 358.74 874.49 372.02 871.72 375.09 862.56 C 369.62 862.42 364.42 860.43 359.87 857.47 C 367.47 855.99 375.50 855.31 382.34 851.37 C 390.14 847.26 396.02 839.80 398.57 831.40 C 402.16 820.65 401.65 808.52 396.68 798.28 C 393.58 792.10 389.63 786.15 384.19 781.79 C 380.39 779.33 375.90 778.23 372.00 775.93 C 365.33 772.66 360.57 766.50 357.41 759.93 C 352.74 750.32 354.09 738.81 348.40 729.61 C 340.26 716.12 324.32 708.98 308.96 708.52 C 298.11 708.80 287.53 712.50 278.49 718.45 C 273.50 721.31 269.98 726.02 265.32 729.33 C 266.43 729.80 267.55 730.22 268.69 730.64 C 268.73 731.25 268.80 732.48 268.84 733.09 C 267.94 733.33 267.04 733.58 266.15 733.84 C 265.53 732.70 264.93 731.57 264.27 730.48 C 260.79 733.94 257.40 737.53 254.66 741.62 C 255.48 741.81 257.12 742.19 257.94 742.38 C 257.51 743.25 257.08 744.12 256.64 745.00 C 255.40 744.79 254.17 744.55 252.95 744.29 C 240.54 758.88 231.47 776.42 226.95 795.06 C 224.12 808.60 222.61 823.12 227.38 836.41 C 230.38 844.35 235.77 852.15 244.01 855.22 C 249.68 857.49 256.85 856.76 261.15 852.13 C 266.10 847.41 264.18 837.74 257.58 835.60 C 255.19 834.30 253.17 836.73 251.18 837.65 C 251.55 836.13 251.90 834.20 253.67 833.78 C 260.20 830.54 268.83 834.29 271.21 841.11 C 274.39 848.16 271.96 856.51 267.14 862.21 C 261.51 867.96 252.92 870.42 245.04 869.09 C 235.38 867.61 227.17 861.17 221.40 853.55 C 209.38 837.43 205.07 816.74 205.41 796.95 C 205.59 778.11 211.22 759.85 218.38 742.59 C 225.99 723.56 236.21 705.35 250.24 690.29 C 258.92 681.60 268.31 673.42 275.28 663.21 C 284.33 650.78 290.41 636.49 295.15 621.93 C 298.97 609.91 301.06 597.44 302.92 584.99 C 305.40 569.71 310.25 554.90 316.84 540.92 C 314.17 535.00 312.47 528.49 313.42 521.96 C 314.26 511.23 320.90 501.55 329.84 495.81 C 335.83 492.27 342.58 489.70 347.37 484.45 C 354.43 477.05 360.89 467.59 360.57 456.95 C 360.25 451.94 355.89 449.17 352.16 446.66 C 352.45 441.99 356.82 438.78 358.71 434.67 C 365.86 422.73 368.55 408.65 368.15 394.86 C 364.47 396.86 361.45 399.87 357.72 401.80 C 347.49 407.46 335.83 411.41 324.00 410.56 C 315.38 410.00 306.94 406.34 301.03 399.98 C 294.60 393.50 291.80 384.05 292.46 375.06 C 293.39 362.11 300.50 350.64 302.36 337.88 C 303.98 325.67 297.95 311.62 285.96 307.01 C 279.23 304.42 271.98 306.46 265.69 309.24 C 270.08 303.70 276.77 299.49 283.99 299.32 C 291.79 298.62 299.45 302.68 304.33 308.60 C 311.68 317.19 314.93 328.82 314.28 340.01 C 313.40 351.07 307.28 360.92 306.34 371.96 C 305.77 379.18 309.14 386.63 315.09 390.81 C 321.45 395.98 330.49 396.66 338.15 394.42 C 349.68 391.62 358.97 383.76 367.71 376.15 C 366.12 363.88 364.01 351.50 365.66 339.10 C 368.59 317.54 381.24 298.34 397.59 284.40 C 394.72 275.82 398.18 266.83 396.41 258.12 C 394.86 250.91 391.39 244.08 386.21 238.80 C 379.49 231.42 369.00 226.90 359.00 228.95 C 352.08 230.21 344.78 232.05 337.93 229.46 C 326.58 225.50 318.72 213.90 318.55 201.97 C 317.82 190.45 323.58 180.06 328.00 169.83 C 331.36 162.33 332.95 153.61 330.49 145.61 C 327.61 136.80 322.16 128.75 314.65 123.25 C 311.15 120.39 306.97 118.55 303.46 115.72 M 401.43 313.82 C 393.20 316.74 386.89 325.20 387.57 334.07 C 387.97 345.75 398.15 356.37 409.94 356.65 C 422.39 357.00 433.44 344.23 430.67 331.93 C 428.48 319.12 414.17 308.88 401.43 313.82 M 496.45 313.62 C 487.41 316.14 480.23 324.62 479.61 334.05 C 478.39 345.09 487.74 356.39 498.97 356.59 C 512.72 357.47 524.91 343.37 522.50 329.92 C 521.23 318.06 507.68 309.68 496.45 313.62 M 389.36 365.65 C 388.78 369.72 387.55 374.31 389.90 378.04 C 390.87 376.03 391.70 373.84 393.56 372.46 C 393.42 377.53 392.53 382.86 395.15 387.51 C 397.66 384.81 399.72 381.71 401.37 378.41 C 396.63 374.86 393.88 369.36 389.36 365.65 M 505.79 377.75 C 502.15 382.82 496.72 386.08 491.80 389.75 C 487.94 392.60 483.19 393.72 479.03 395.99 C 481.17 402.79 483.61 409.81 487.92 415.58 C 488.24 415.29 488.86 414.71 489.17 414.42 C 491.16 407.16 489.56 399.75 488.14 392.56 C 490.28 397.04 492.60 401.51 496.27 404.97 C 497.97 400.09 497.50 394.73 496.83 389.69 C 498.37 393.15 499.65 396.74 501.31 400.16 C 501.81 400.37 502.83 400.80 503.34 401.02 C 505.41 394.73 505.87 387.98 503.70 381.67 C 505.77 384.38 507.46 387.39 509.79 389.92 C 513.33 385.18 510.84 379.10 511.20 373.74 C 512.50 375.17 513.62 376.76 514.99 378.14 C 518.25 375.10 516.74 369.59 517.08 365.54 C 512.66 368.97 509.69 373.80 505.79 377.75 M 398.68 394.91 C 401.71 394.72 403.05 391.70 405.00 389.82 C 404.77 393.85 404.30 397.89 404.76 401.93 C 408.14 402.07 408.64 398.21 409.83 395.89 C 410.65 393.12 412.87 390.19 411.85 387.27 C 408.93 384.70 405.64 382.56 402.82 379.85 C 400.38 384.51 398.35 389.53 398.68 394.91 M 412.72 388.81 C 412.71 394.58 410.53 400.22 411.38 405.99 C 411.18 407.65 413.11 408.25 414.09 407.13 C 418.03 403.67 420.23 398.82 423.29 394.66 C 422.45 399.07 421.09 403.41 421.24 407.95 C 421.43 411.08 420.53 415.04 423.28 417.30 C 427.46 411.17 431.13 404.25 431.95 396.78 C 426.57 394.62 420.94 392.97 416.14 389.59 C 415.11 389.29 413.59 387.37 412.72 388.81 M 432.63 396.94 C 431.37 405.06 431.99 413.50 433.89 421.47 C 435.91 421.83 437.15 419.52 438.31 418.23 C 441.93 412.76 445.45 406.91 446.53 400.33 C 441.86 399.34 437.25 398.12 432.63 396.94 M 465.36 400.14 C 466.47 403.71 467.61 407.32 469.49 410.58 C 471.78 414.65 473.70 419.45 478.13 421.67 C 478.57 420.49 478.94 419.29 479.25 418.08 C 479.88 410.73 480.07 403.24 478.43 396.00 C 474.10 397.47 469.70 398.72 465.36 400.14 M 448.44 400.57 C 448.98 407.31 450.25 414.00 452.31 420.45 C 453.12 422.67 453.85 425.30 456.45 425.93 C 461.99 418.61 462.46 409.05 464.47 400.42 C 459.12 400.42 453.78 400.49 448.44 400.57 M 337.47 499.63 C 328.67 502.36 321.08 509.79 319.61 519.10 C 315.95 531.71 325.31 547.27 339.00 547.63 C 352.58 548.36 363.40 534.89 362.86 521.93 C 363.60 508.92 350.60 496.37 337.47 499.63 M 548.09 500.17 C 541.74 502.17 536.73 507.44 534.37 513.58 C 528.10 528.23 539.74 547.70 556.02 547.82 C 568.93 547.88 578.19 534.18 576.41 522.04 C 575.49 508.61 561.82 496.03 548.09 500.17 M 371.59 541.81 C 359.47 545.07 350.35 557.35 351.01 569.94 C 351.46 582.79 361.17 594.97 373.85 597.65 C 384.95 600.39 397.37 594.98 403.14 585.16 C 407.74 578.50 408.72 569.72 406.59 562.01 C 403.52 552.14 395.29 543.71 385.07 541.40 C 380.64 540.25 375.97 540.68 371.59 541.81 M 509.42 541.65 C 497.14 544.68 487.89 556.45 487.37 569.01 C 486.40 584.11 499.85 598.52 515.03 598.43 C 524.22 598.65 532.87 593.40 538.24 586.16 C 543.40 579.33 544.95 570.14 542.96 561.88 C 539.52 547.75 523.68 537.51 509.42 541.65 M 445.72 562.94 C 429.58 563.44 416.14 579.04 417.26 594.99 C 417.80 610.60 432.34 624.26 447.99 623.54 C 465.11 623.85 479.83 606.79 477.68 589.94 C 476.14 574.50 461.31 561.66 445.72 562.94 M 321.95 624.53 C 326.74 621.44 330.37 616.84 333.37 612.06 C 336.17 606.98 339.28 601.91 340.40 596.13 C 341.47 590.40 341.72 584.48 341.08 578.69 C 333.73 593.51 327.95 609.11 321.95 624.53 M 546.65 585.54 C 543.19 599.77 547.26 614.80 555.17 626.81 C 558.72 632.30 562.21 638.18 562.71 644.86 C 563.25 647.04 562.93 650.16 565.36 651.29 C 569.63 653.15 574.16 654.45 578.80 655.01 C 573.22 648.00 568.83 640.09 564.95 632.04 C 557.64 617.02 553.86 600.60 546.65 585.54 M 333.36 626.64 C 324.78 629.29 319.18 638.18 319.47 646.99 C 319.26 656.25 324.37 664.90 331.60 670.39 C 337.46 675.11 345.94 676.77 352.92 673.62 C 358.84 671.29 363.28 666.05 365.42 660.14 C 367.75 653.17 366.38 645.34 362.65 639.11 C 356.93 629.45 344.49 622.36 333.36 626.64 M 532.37 626.70 C 520.48 629.87 511.12 641.55 511.52 654.03 C 510.91 664.81 520.03 675.41 530.96 675.67 C 536.58 676.11 542.18 674.05 546.57 670.61 C 553.91 664.74 559.15 655.59 558.34 645.97 C 557.97 633.39 544.51 623.64 532.37 626.70 M 439.41 653.62 C 427.06 656.11 416.51 667.09 416.17 679.95 C 415.45 689.56 420.90 699.11 429.29 703.72 C 440.44 710.48 456.14 707.26 464.27 697.23 C 469.45 691.16 472.49 682.90 471.03 674.90 C 470.05 668.75 466.43 663.30 461.84 659.22 C 455.73 654.02 447.24 652.05 439.41 653.62 M 323.10 673.86 C 325.51 684.04 329.09 694.34 335.96 702.41 C 332.41 694.31 328.82 686.21 325.44 678.04 C 324.78 676.57 323.95 675.20 323.10 673.86 M 534.36 720.61 C 527.55 723.26 522.13 729.24 519.69 736.09 C 518.54 741.02 518.72 746.82 522.29 750.78 C 525.97 755.45 532.87 756.66 538.20 754.34 C 548.08 750.19 554.78 737.69 550.48 727.42 C 548.14 721.23 540.40 718.20 534.36 720.61 M 376.55 728.81 C 369.06 730.27 363.00 736.53 361.31 743.90 C 360.02 749.83 361.35 756.32 364.94 761.24 C 370.74 769.50 380.72 775.01 390.94 774.42 C 401.32 774.26 409.84 764.19 409.29 754.03 C 407.76 738.70 392.05 725.48 376.55 728.81 M 513.43 817.67 C 505.69 819.86 498.97 827.58 500.10 835.92 C 500.57 840.98 506.31 844.47 511.06 842.94 C 517.90 840.71 522.88 834.61 525.37 828.06 C 525.77 824.95 525.52 821.24 523.02 819.05 C 520.37 816.83 516.61 816.87 513.43 817.67 Z" />
<path fill="#fefffe" opacity="1.00" d=" M 401.43 313.82 C 414.17 308.88 428.48 319.12 430.67 331.93 C 433.44 344.23 422.39 357.00 409.94 356.65 C 398.15 356.37 387.97 345.75 387.57 334.07 C 386.89 325.20 393.20 316.74 401.43 313.82 M 403.44 322.61 C 397.78 324.61 394.52 332.08 397.56 337.44 C 399.50 340.78 403.22 342.86 407.00 343.32 C 413.70 343.79 419.58 336.46 417.38 330.02 C 415.88 324.15 409.13 320.71 403.44 322.61 Z" />
<path fill="#fefffe" opacity="1.00" d=" M 496.45 313.62 C 507.68 309.68 521.23 318.06 522.50 329.92 C 524.91 343.37 512.72 357.47 498.97 356.59 C 487.74 356.39 478.39 345.09 479.61 334.05 C 480.23 324.62 487.41 316.14 496.45 313.62 M 500.48 322.66 C 492.38 325.03 490.16 337.85 498.09 341.85 C 505.64 347.04 516.89 338.60 513.96 329.98 C 512.63 324.14 506.09 320.79 500.48 322.66 Z" />
<path fill="#000000" opacity="1.00" d=" M 403.44 322.61 C 409.13 320.71 415.88 324.15 417.38 330.02 C 419.58 336.46 413.70 343.79 407.00 343.32 C 403.22 342.86 399.50 340.78 397.56 337.44 C 394.52 332.08 397.78 324.61 403.44 322.61 Z" />
<path fill="#000000" opacity="1.00" d=" M 500.48 322.66 C 506.09 320.79 512.63 324.14 513.96 329.98 C 516.89 338.60 505.64 347.04 498.09 341.85 C 490.16 337.85 492.38 325.03 500.48 322.66 Z" />
<path fill="#fefffe" opacity="1.00" d=" M 389.36 365.65 C 393.88 369.36 396.63 374.86 401.37 378.41 C 399.72 381.71 397.66 384.81 395.15 387.51 C 392.53 382.86 393.42 377.53 393.56 372.46 C 391.70 373.84 390.87 376.03 389.90 378.04 C 387.55 374.31 388.78 369.72 389.36 365.65 Z" />
<path fill="#fefffe" opacity="1.00" d=" M 505.79 377.75 C 509.69 373.80 512.66 368.97 517.08 365.54 C 516.74 369.59 518.25 375.10 514.99 378.14 C 513.62 376.76 512.50 375.17 511.20 373.74 C 510.84 379.10 513.33 385.18 509.79 389.92 C 507.46 387.39 505.77 384.38 503.70 381.67 C 505.87 387.98 505.41 394.73 503.34 401.02 C 502.83 400.80 501.81 400.37 501.31 400.16 C 499.65 396.74 498.37 393.15 496.83 389.69 C 497.50 394.73 497.97 400.09 496.27 404.97 C 492.60 401.51 490.28 397.04 488.14 392.56 C 489.56 399.75 491.16 407.16 489.17 414.42 C 488.86 414.71 488.24 415.29 487.92 415.58 C 483.61 409.81 481.17 402.79 479.03 395.99 C 483.19 393.72 487.94 392.60 491.80 389.75 C 496.72 386.08 502.15 382.82 505.79 377.75 Z" />
<path fill="#fefffe" opacity="1.00" d=" M 398.68 394.91 C 398.35 389.53 400.38 384.51 402.82 379.85 C 405.64 382.56 408.93 384.70 411.85 387.27 C 412.87 390.19 410.65 393.12 409.83 395.89 C 408.64 398.21 408.14 402.07 404.76 401.93 C 404.30 397.89 404.77 393.85 405.00 389.82 C 403.05 391.70 401.71 394.72 398.68 394.91 Z" />
<path fill="#fefffe" opacity="1.00" d=" M 412.72 388.81 C 413.59 387.37 415.11 389.29 416.14 389.59 C 420.94 392.97 426.57 394.62 431.95 396.78 C 431.13 404.25 427.46 411.17 423.28 417.30 C 420.53 415.04 421.43 411.08 421.24 407.95 C 421.09 403.41 422.45 399.07 423.29 394.66 C 420.23 398.82 418.03 403.67 414.09 407.13 C 413.11 408.25 411.18 407.65 411.38 405.99 C 410.53 400.22 412.71 394.58 412.72 388.81 Z" />
<path fill="#fefffe" opacity="1.00" d=" M 432.63 396.94 C 437.25 398.12 441.86 399.34 446.53 400.33 C 445.45 406.91 441.93 412.76 438.31 418.23 C 437.15 419.52 435.91 421.83 433.89 421.47 C 431.99 413.50 431.37 405.06 432.63 396.94 Z" />
<path fill="#fefffe" opacity="1.00" d=" M 465.36 400.14 C 469.70 398.72 474.10 397.47 478.43 396.00 C 480.07 403.24 479.88 410.73 479.25 418.08 C 478.94 419.29 478.57 420.49 478.13 421.67 C 473.70 419.45 471.78 414.65 469.49 410.58 C 467.61 407.32 466.47 403.71 465.36 400.14 Z" />
<path fill="#fefffe" opacity="1.00" d=" M 448.44 400.57 C 453.78 400.49 459.12 400.42 464.47 400.42 C 462.46 409.05 461.99 418.61 456.45 425.93 C 453.85 425.30 453.12 422.67 452.31 420.45 C 450.25 414.00 448.98 407.31 448.44 400.57 Z" />
<path fill="#fefffe" opacity="1.00" d=" M 337.47 499.63 C 350.60 496.37 363.60 508.92 362.86 521.93 C 363.40 534.89 352.58 548.36 339.00 547.63 C 325.31 547.27 315.95 531.71 319.61 519.10 C 321.08 509.79 328.67 502.36 337.47 499.63 M 334.46 510.66 C 326.06 513.99 323.65 528.10 332.28 532.63 C 340.48 536.58 349.23 527.10 347.10 519.01 C 346.37 513.29 340.19 508.33 334.46 510.66 Z" />
<path fill="#fefffe" opacity="1.00" d=" M 548.09 500.17 C 561.82 496.03 575.49 508.61 576.41 522.04 C 578.19 534.18 568.93 547.88 556.02 547.82 C 539.74 547.70 528.10 528.23 534.37 513.58 C 536.73 507.44 541.74 502.17 548.09 500.17 M 554.24 511.29 C 545.87 515.50 546.88 529.16 555.30 532.80 C 561.71 536.26 569.31 529.77 568.53 522.98 C 568.76 515.95 561.55 507.89 554.24 511.29 Z" />
<path fill="#000000" opacity="1.00" d=" M 334.46 510.66 C 340.19 508.33 346.37 513.29 347.10 519.01 C 349.23 527.10 340.48 536.58 332.28 532.63 C 323.65 528.10 326.06 513.99 334.46 510.66 Z" />
<path fill="#000000" opacity="1.00" d=" M 554.24 511.29 C 561.55 507.89 568.76 515.95 568.53 522.98 C 569.31 529.77 561.71 536.26 555.30 532.80 C 546.88 529.16 545.87 515.50 554.24 511.29 Z" />
<path fill="#fefffe" opacity="1.00" d=" M 371.59 541.81 C 375.97 540.68 380.64 540.25 385.07 541.40 C 395.29 543.71 403.52 552.14 406.59 562.01 C 408.72 569.72 407.74 578.50 403.14 585.16 C 397.37 594.98 384.95 600.39 373.85 597.65 C 361.17 594.97 351.46 582.79 351.01 569.94 C 350.35 557.35 359.47 545.07 371.59 541.81 M 372.47 555.76 C 364.82 557.72 360.12 567.17 363.52 574.39 C 366.34 580.98 374.85 584.52 381.43 581.48 C 386.60 578.80 389.89 572.69 388.70 566.87 C 387.84 559.42 379.82 553.58 372.47 555.76 Z" />
<path fill="#fefffe" opacity="1.00" d=" M 509.42 541.65 C 523.68 537.51 539.52 547.75 542.96 561.88 C 544.95 570.14 543.40 579.33 538.24 586.16 C 532.87 593.40 524.22 598.65 515.03 598.43 C 499.85 598.52 486.40 584.11 487.37 569.01 C 487.89 556.45 497.14 544.68 509.42 541.65 M 516.43 555.66 C 510.99 557.16 506.67 562.23 506.30 567.89 C 505.17 575.31 511.59 582.61 519.01 582.77 C 526.71 583.34 533.48 575.62 532.32 568.08 C 532.39 560.17 524.07 553.70 516.43 555.66 Z" />
<path fill="#000000" opacity="1.00" d=" M 372.47 555.76 C 379.82 553.58 387.84 559.42 388.70 566.87 C 389.89 572.69 386.60 578.80 381.43 581.48 C 374.85 584.52 366.34 580.98 363.52 574.39 C 360.12 567.17 364.82 557.72 372.47 555.76 Z" />
<path fill="#000000" opacity="1.00" d=" M 516.43 555.66 C 524.07 553.70 532.39 560.17 532.32 568.08 C 533.48 575.62 526.71 583.34 519.01 582.77 C 511.59 582.61 505.17 575.31 506.30 567.89 C 506.67 562.23 510.99 557.16 516.43 555.66 Z" />
<path fill="#fefffe" opacity="1.00" d=" M 445.72 562.94 C 461.31 561.66 476.14 574.50 477.68 589.94 C 479.83 606.79 465.11 623.85 447.99 623.54 C 432.34 624.26 417.80 610.60 417.26 594.99 C 416.14 579.04 429.58 563.44 445.72 562.94 M 443.48 580.64 C 437.67 582.23 433.60 588.07 433.68 594.01 C 433.59 601.85 441.35 608.69 449.11 607.69 C 457.93 606.93 464.40 596.10 459.93 588.18 C 457.19 582.03 449.85 579.13 443.48 580.64 Z" />
<path fill="#000000" opacity="1.00" d=" M 443.48 580.64 C 449.85 579.13 457.19 582.03 459.93 588.18 C 464.40 596.10 457.93 606.93 449.11 607.69 C 441.35 608.69 433.59 601.85 433.68 594.01 C 433.60 588.07 437.67 582.23 443.48 580.64 Z" />
<path fill="#fefffe" opacity="1.00" d=" M 333.36 626.64 C 344.49 622.36 356.93 629.45 362.65 639.11 C 366.38 645.34 367.75 653.17 365.42 660.14 C 363.28 666.05 358.84 671.29 352.92 673.62 C 345.94 676.77 337.46 675.11 331.60 670.39 C 324.37 664.90 319.26 656.25 319.47 646.99 C 319.18 638.18 324.78 629.29 333.36 626.64 M 336.68 638.86 C 331.82 639.53 328.29 644.13 328.29 648.94 C 327.64 656.02 333.95 662.85 341.03 662.85 C 346.27 663.16 350.70 658.30 351.12 653.28 C 350.94 645.84 344.41 638.36 336.68 638.86 Z" />
<path fill="#fefffe" opacity="1.00" d=" M 532.37 626.70 C 544.51 623.64 557.97 633.39 558.34 645.97 C 559.15 655.59 553.91 664.74 546.57 670.61 C 542.18 674.05 536.58 676.11 530.96 675.67 C 520.03 675.41 510.91 664.81 511.52 654.03 C 511.12 641.55 520.48 629.87 532.37 626.70 M 535.37 640.63 C 530.42 642.66 527.28 647.81 526.70 652.99 C 525.90 659.82 533.74 665.38 540.02 663.15 C 546.03 660.95 550.84 654.62 549.42 648.01 C 548.84 641.57 541.02 637.48 535.37 640.63 Z" />
<path fill="#000000" opacity="1.00" d=" M 336.68 638.86 C 344.41 638.36 350.94 645.84 351.12 653.28 C 350.70 658.30 346.27 663.16 341.03 662.85 C 333.95 662.85 327.64 656.02 328.29 648.94 C 328.29 644.13 331.82 639.53 336.68 638.86 Z" />
<path fill="#000000" opacity="1.00" d=" M 535.37 640.63 C 541.02 637.48 548.84 641.57 549.42 648.01 C 550.84 654.62 546.03 660.95 540.02 663.15 C 533.74 665.38 525.90 659.82 526.70 652.99 C 527.28 647.81 530.42 642.66 535.37 640.63 Z" />
<path fill="#fefffe" opacity="1.00" d=" M 439.41 653.62 C 447.24 652.05 455.73 654.02 461.84 659.22 C 466.43 663.30 470.05 668.75 471.03 674.90 C 472.49 682.90 469.45 691.16 464.27 697.23 C 456.14 707.26 440.44 710.48 429.29 703.72 C 420.90 699.11 415.45 689.56 416.17 679.95 C 416.51 667.09 427.06 656.11 439.41 653.62 M 441.94 667.81 C 437.84 668.76 433.87 671.25 431.96 675.10 C 428.83 680.85 430.75 689.12 436.96 691.90 C 444.67 696.88 455.69 690.90 456.88 682.13 C 458.61 673.81 449.95 666.33 441.94 667.81 Z" />
<path fill="#000000" opacity="1.00" d=" M 441.94 667.81 C 449.95 666.33 458.61 673.81 456.88 682.13 C 455.69 690.90 444.67 696.88 436.96 691.90 C 430.75 689.12 428.83 680.85 431.96 675.10 C 433.87 671.25 437.84 668.76 441.94 667.81 Z" />
<path fill="#000000" opacity="1.00" d=" M 295.66 715.96 C 302.90 714.93 310.38 714.91 317.54 716.57 C 311.48 716.91 305.25 716.67 299.43 718.63 C 292.85 721.00 286.86 724.80 281.91 729.73 C 278.86 729.54 277.61 726.67 278.98 724.09 C 283.00 719.09 289.52 716.92 295.66 715.96 Z" />
<path fill="#000000" opacity="1.00" d=" M 576.82 717.10 C 582.61 714.86 588.89 715.11 594.98 715.28 C 601.56 715.74 608.15 717.81 613.50 721.72 C 615.36 723.27 617.71 726.25 615.48 728.49 C 614.42 729.85 612.72 729.25 611.66 728.28 C 604.91 723.21 597.61 718.09 589.00 717.09 C 584.96 716.34 580.88 717.10 576.82 717.10 Z" />
<path fill="#fefffe" opacity="1.00" d=" M 534.36 720.61 C 540.40 718.20 548.14 721.23 550.48 727.42 C 554.78 737.69 548.08 750.19 538.20 754.34 C 532.87 756.66 525.97 755.45 522.29 750.78 C 518.72 746.82 518.54 741.02 519.69 736.09 C 522.13 729.24 527.55 723.26 534.36 720.61 M 537.47 729.68 C 531.31 731.92 527.70 740.53 532.17 745.88 C 537.79 750.41 545.51 744.04 546.36 738.05 C 547.80 733.09 542.41 727.62 537.47 729.68 Z" />
<path fill="#fefffe" opacity="1.00" d=" M 376.55 728.81 C 392.05 725.48 407.76 738.70 409.29 754.03 C 409.84 764.19 401.32 774.26 390.94 774.42 C 380.72 775.01 370.74 769.50 364.94 761.24 C 361.35 756.32 360.02 749.83 361.31 743.90 C 363.00 736.53 369.06 730.27 376.55 728.81 M 375.45 742.63 C 370.80 744.46 368.33 750.73 370.89 755.12 C 373.58 760.76 379.88 764.40 386.11 763.78 C 391.15 763.25 395.23 757.98 394.21 752.97 C 392.40 745.20 382.97 739.91 375.45 742.63 Z" />
<path fill="#000000" opacity="1.00" d=" M 537.47 729.68 C 542.41 727.62 547.80 733.09 546.36 738.05 C 545.51 744.04 537.79 750.41 532.17 745.88 C 527.70 740.53 531.31 731.92 537.47 729.68 Z" />
<path fill="#000000" opacity="1.00" d=" M 375.45 742.63 C 382.97 739.91 392.40 745.20 394.21 752.97 C 395.23 757.98 391.15 763.25 386.11 763.78 C 379.88 764.40 373.58 760.76 370.89 755.12 C 368.33 750.73 370.80 744.46 375.45 742.63 Z" />
<path fill="#fefffe" opacity="1.00" d=" M 513.43 817.67 C 516.61 816.87 520.37 816.83 523.02 819.05 C 525.52 821.24 525.77 824.95 525.37 828.06 C 522.88 834.61 517.90 840.71 511.06 842.94 C 506.31 844.47 500.57 840.98 500.10 835.92 C 498.97 827.58 505.69 819.86 513.43 817.67 M 509.06 830.22 C 507.65 832.44 508.36 835.90 511.05 836.74 C 517.03 838.34 522.92 830.81 519.44 825.48 C 515.39 823.62 510.56 826.18 509.06 830.22 Z" />
<path fill="#000000" opacity="1.00" d=" M 509.06 830.22 C 510.56 826.18 515.39 823.62 519.44 825.48 C 522.92 830.81 517.03 838.34 511.05 836.74 C 508.36 835.90 507.65 832.44 509.06 830.22 Z" />
<path fill="#000000" opacity="1.00" d=" M 520.53 852.92 C 523.13 857.11 522.31 862.61 525.59 866.47 C 529.22 872.02 537.00 872.33 542.47 869.48 C 542.49 869.11 542.53 868.37 542.56 868.00 C 540.35 867.51 537.94 867.31 536.15 865.80 C 537.91 862.31 542.43 862.02 545.86 861.56 C 549.44 861.53 554.42 862.16 555.90 865.96 C 546.78 869.48 540.88 879.33 541.59 888.99 C 542.14 899.93 549.88 910.19 560.29 913.62 C 570.28 917.22 582.16 914.11 589.49 906.54 C 594.25 901.23 597.71 894.31 597.33 887.03 C 596.97 881.27 594.04 875.39 588.94 872.45 C 585.49 870.43 581.41 870.87 577.60 870.68 C 581.16 866.10 587.62 864.59 593.04 866.36 C 599.93 868.54 605.55 874.18 608.06 880.92 C 610.13 886.71 610.89 893.05 609.68 899.12 C 608.12 909.38 601.79 918.26 594.20 925.04 C 585.09 932.68 572.89 936.42 561.06 935.53 C 540.42 934.45 521.58 920.44 513.16 901.78 C 510.52 895.79 508.47 889.51 505.05 883.90 C 503.75 881.61 502.05 879.54 501.00 877.12 C 503.44 873.58 506.69 870.69 509.39 867.35 C 513.50 862.85 516.64 857.59 520.53 852.92 Z" />
</svg>
