<?xml version="1.0" encoding="UTF-8" ?>
<!DOCTYPE svg PUBLIC "-//W3C//DTD SVG 1.1//EN" "http://www.w3.org/Graphics/SVG/1.1/DTD/svg11.dtd">
<svg width="896pt" height="1152pt" viewBox="0 0 896 1152" version="1.1" xmlns="http://www.w3.org/2000/svg">
<path fill="#000000" opacity="1.00" d=" M 0.00 0.00 L 0.36 0.00 C 0.27 0.09 0.09 0.27 0.00 0.36 L 0.00 0.00 Z" />
<path fill="#000000" opacity="1.00" d=" M 328.41 176.16 C 361.26 165.81 395.56 160.37 429.92 158.63 C 449.09 158.24 468.34 158.01 487.42 160.05 C 507.41 162.31 527.41 164.98 546.89 170.13 C 567.05 175.21 586.97 181.45 606.03 189.82 C 609.72 191.31 613.39 192.89 617.13 194.27 C 619.15 188.79 622.26 181.47 629.06 181.25 C 632.81 180.74 635.47 183.85 637.51 186.52 C 641.89 192.58 642.27 200.34 644.85 207.14 C 647.30 209.16 650.31 210.33 653.01 211.97 C 667.92 221.19 682.80 230.52 696.56 241.41 C 747.97 281.36 789.87 333.64 816.82 392.98 C 825.91 411.66 832.60 431.40 838.41 451.32 C 842.67 464.43 845.13 478.00 848.08 491.44 C 850.24 504.90 851.87 518.43 853.30 531.98 C 854.17 545.64 853.85 559.33 853.92 573.01 C 854.96 584.33 853.40 595.66 852.53 606.93 C 847.41 656.53 833.54 705.39 810.81 749.83 C 790.18 790.94 762.42 828.42 729.42 860.44 C 694.60 892.98 654.40 920.15 610.18 938.17 C 586.99 948.25 562.65 955.53 537.99 961.03 C 507.41 967.29 476.25 971.19 445.00 970.59 C 428.25 970.92 411.57 969.20 394.97 967.14 C 379.24 964.63 363.48 962.20 348.05 958.18 C 284.51 942.25 224.74 910.92 176.35 866.65 C 159.65 851.65 144.58 834.94 130.63 817.38 C 122.85 806.47 114.37 796.04 107.55 784.48 C 101.31 775.15 96.04 765.26 90.75 755.38 C 87.20 748.21 83.10 741.30 80.25 733.80 C 72.99 717.97 66.80 701.63 62.14 684.84 C 52.95 656.11 47.63 626.22 45.45 596.17 C 44.98 588.46 44.05 580.72 45.06 573.01 C 45.31 558.20 44.60 543.34 45.97 528.58 C 47.96 505.31 52.07 482.22 57.88 459.60 C 60.85 450.59 62.89 441.30 66.11 432.37 C 68.29 426.15 70.34 419.88 72.73 413.74 C 77.12 404.11 80.88 394.21 85.64 384.74 C 105.61 344.26 132.18 307.02 164.05 275.05 C 181.25 258.39 199.56 242.82 219.32 229.26 C 241.37 214.41 264.77 201.54 289.28 191.19 C 295.48 189.04 299.69 183.71 304.65 179.69 C 310.10 175.26 315.61 170.58 322.23 168.02 C 323.93 167.10 325.73 168.03 327.39 168.56 C 327.88 171.07 328.30 173.60 328.41 176.16 M 421.50 174.22 C 392.86 175.96 364.38 180.77 336.83 188.84 C 332.29 190.89 326.90 191.39 322.80 194.14 C 321.86 202.24 321.59 212.63 329.18 217.74 C 333.74 216.94 337.96 214.67 342.46 213.49 C 361.91 207.50 381.92 203.43 402.04 200.50 C 405.83 199.53 408.35 202.69 411.26 204.41 C 414.96 204.14 418.76 204.48 422.37 203.54 C 430.52 195.95 439.04 188.77 447.36 181.37 C 448.45 180.64 449.47 179.29 450.94 179.52 C 454.55 181.63 457.42 184.73 460.48 187.53 C 466.36 193.01 472.82 197.82 478.55 203.46 C 480.10 204.93 482.37 205.14 484.39 205.45 C 488.79 206.66 490.02 200.20 494.18 200.31 C 499.72 200.08 505.00 202.11 510.46 202.74 C 532.36 206.84 554.20 212.02 574.91 220.37 C 578.95 220.79 583.05 221.00 587.11 220.57 C 596.02 218.51 604.03 213.62 610.70 207.45 C 579.27 193.68 546.19 183.63 512.34 178.00 C 500.62 176.58 488.92 174.84 477.13 174.23 C 468.14 172.97 459.01 173.84 450.00 172.84 C 440.53 173.82 430.95 172.96 421.50 174.22 M 288.58 219.67 C 283.02 235.61 288.54 254.75 301.69 265.33 C 305.88 269.07 311.26 273.47 317.27 271.35 C 324.47 268.01 330.02 262.10 335.63 256.64 C 343.76 249.08 351.99 241.60 360.73 234.73 C 363.10 233.06 365.25 231.10 367.00 228.78 C 360.63 228.01 354.34 229.75 347.96 229.45 C 342.96 229.67 337.99 228.40 333.00 229.08 C 328.28 229.49 323.44 229.32 318.86 228.04 C 313.61 226.24 309.12 222.51 305.64 218.27 C 302.91 206.15 308.44 194.47 312.89 183.49 C 300.55 191.90 292.65 205.54 288.58 219.67 M 627.03 192.12 C 624.47 197.94 624.10 204.50 620.99 210.10 C 618.44 214.67 614.13 217.92 609.99 220.98 C 603.54 225.58 596.23 230.01 588.01 229.76 C 567.42 231.14 547.49 224.22 526.97 224.27 C 518.29 223.15 509.60 224.58 500.91 224.64 C 485.08 226.84 470.98 235.17 457.87 243.86 C 454.87 245.81 452.20 248.33 448.96 249.88 C 447.04 250.08 446.24 248.03 445.03 246.95 C 440.96 242.49 435.31 238.17 428.90 239.28 C 418.18 241.14 409.00 247.49 400.12 253.42 C 400.72 248.73 403.31 244.62 405.41 240.47 C 408.21 235.08 413.44 231.70 418.26 228.29 C 433.05 218.89 450.89 216.38 468.04 215.17 C 472.65 214.50 477.35 214.53 481.99 215.02 C 487.32 215.48 492.63 214.54 497.96 214.56 C 500.57 214.53 503.21 214.63 505.79 214.16 C 499.46 211.89 492.63 211.76 486.15 210.09 C 478.24 208.08 470.03 208.69 461.97 208.16 C 456.33 207.19 450.66 208.72 445.00 208.07 C 440.03 207.44 435.08 208.53 430.11 208.58 C 412.40 210.89 394.79 215.51 378.98 223.96 C 372.55 227.27 368.99 234.16 367.54 240.97 C 366.98 248.34 368.71 255.60 369.63 262.86 C 372.42 278.78 374.63 294.78 377.97 310.59 C 380.19 320.60 379.09 330.88 380.09 341.01 C 380.29 352.01 380.05 363.01 380.30 374.01 C 385.03 371.47 388.21 367.00 392.01 363.35 C 396.13 368.12 398.84 374.28 404.21 377.86 C 408.14 362.58 414.47 348.08 420.60 333.59 C 424.95 323.81 430.44 314.52 437.41 306.38 C 445.09 297.11 452.36 287.39 461.42 279.40 C 464.81 276.15 468.20 272.88 471.81 269.88 C 478.55 263.68 486.54 259.12 494.25 254.28 C 503.22 248.11 512.90 242.77 523.30 239.45 C 526.65 238.97 530.13 238.84 533.48 239.42 C 538.71 242.75 540.37 249.24 540.58 255.07 C 540.82 262.53 544.14 269.36 545.57 276.60 C 546.02 279.02 547.40 281.08 548.95 282.94 C 554.47 277.66 556.48 269.96 561.07 264.01 C 562.98 261.94 565.87 261.36 568.52 260.87 C 579.32 258.97 590.26 257.77 600.86 254.85 C 606.82 253.64 612.43 250.95 617.17 247.15 C 622.52 243.41 625.50 237.41 629.50 232.43 C 634.25 226.76 633.62 218.93 633.66 212.02 C 633.86 205.22 632.30 198.49 629.75 192.22 C 629.07 192.19 627.71 192.15 627.03 192.12 M 181.33 279.33 C 174.46 285.12 168.89 292.21 162.48 298.47 C 135.96 327.77 113.26 360.71 96.67 396.63 C 86.36 417.75 78.73 440.05 72.53 462.69 C 68.18 477.70 65.40 493.11 63.09 508.55 C 61.11 518.93 60.82 529.52 59.74 540.00 C 58.84 567.00 58.85 594.15 62.98 620.91 C 68.51 662.41 81.26 702.84 99.53 740.49 C 112.60 765.81 127.20 790.55 145.41 812.56 C 153.60 823.58 163.28 833.35 172.78 843.21 C 184.35 854.69 196.37 865.75 209.17 875.85 C 225.04 888.41 242.23 899.18 259.83 909.14 C 267.42 913.41 275.40 916.93 283.23 920.73 C 316.15 936.28 351.43 946.56 387.35 952.25 C 408.36 955.88 429.70 956.92 451.00 956.71 C 475.73 957.14 500.43 954.62 524.68 949.81 C 551.99 944.35 578.96 936.74 604.53 925.63 C 627.33 916.13 649.10 904.25 669.65 890.56 C 678.01 884.30 686.93 878.75 694.75 871.79 C 712.31 857.80 728.46 842.08 743.18 825.14 C 756.69 810.30 767.68 793.45 778.86 776.86 C 790.37 758.93 800.08 739.86 808.39 720.25 C 817.41 700.60 823.16 679.67 828.88 658.88 C 832.94 640.70 836.47 622.35 837.83 603.76 C 839.01 597.25 838.36 590.60 839.38 584.08 C 839.60 570.75 839.79 557.40 839.22 544.09 C 837.81 521.02 834.72 498.02 829.69 475.44 C 817.98 426.81 797.91 379.95 769.01 339.03 C 764.31 331.26 758.17 324.51 752.93 317.12 C 749.34 312.09 744.71 307.95 740.88 303.11 C 717.20 275.87 689.14 252.65 658.96 232.95 C 654.25 230.20 649.84 226.78 644.64 224.98 C 643.46 232.79 643.00 240.83 639.30 247.99 C 641.70 251.31 642.90 255.93 641.05 259.72 C 636.92 264.59 634.03 271.06 627.71 273.51 C 630.26 275.72 632.98 277.77 636.15 279.00 C 638.30 273.17 640.84 266.81 646.44 263.46 C 650.79 260.47 656.91 260.61 661.04 263.97 C 675.84 275.38 690.68 286.88 703.89 300.14 C 709.65 307.02 716.57 312.83 722.15 319.85 C 723.91 321.57 723.53 324.19 723.22 326.40 C 721.21 334.34 713.68 340.62 705.44 340.85 C 712.30 349.97 719.71 358.66 726.10 368.13 C 729.17 359.59 730.37 350.38 734.68 342.32 C 739.63 341.97 743.86 344.91 748.27 346.67 C 757.04 349.88 765.68 353.51 774.76 355.80 C 771.85 366.68 769.37 377.66 767.54 388.77 C 767.18 391.22 766.56 393.65 765.52 395.91 C 757.69 395.74 750.00 394.20 742.21 393.53 C 746.54 402.77 752.23 411.32 756.21 420.74 C 758.41 426.25 761.48 431.49 762.57 437.39 C 759.19 435.00 757.09 431.40 755.30 427.77 C 749.15 415.56 743.49 403.09 736.53 391.32 C 729.61 377.85 720.32 365.83 711.06 353.93 C 701.64 340.87 690.57 329.16 679.35 317.67 C 664.80 304.38 650.07 290.95 632.84 281.17 C 629.69 279.14 626.50 277.14 622.97 275.86 C 619.59 279.08 615.83 281.89 612.45 285.11 C 616.83 297.90 622.94 310.14 626.94 323.11 C 630.44 334.50 635.61 345.75 635.42 357.91 C 635.41 368.11 636.03 378.34 635.25 388.53 C 633.44 397.70 630.97 406.78 627.71 415.55 C 626.47 418.32 625.48 421.41 626.47 424.43 C 631.72 439.81 638.43 454.66 644.20 469.85 C 648.03 478.25 651.81 486.68 656.28 494.77 C 662.02 507.15 669.06 518.98 677.61 529.64 C 681.46 530.49 685.57 529.71 689.16 528.15 C 697.81 524.58 706.78 520.20 712.18 512.20 C 716.05 506.25 720.17 499.58 719.35 492.18 C 718.08 481.11 713.20 470.90 707.56 461.44 C 702.79 454.04 695.95 448.36 689.83 442.14 C 684.82 436.79 676.79 434.30 674.04 427.00 C 670.40 417.42 669.88 406.04 674.62 396.74 C 679.65 387.63 687.74 380.24 697.30 376.11 C 702.33 373.81 708.10 373.67 713.48 374.46 C 717.24 375.90 718.21 380.74 717.48 384.32 C 714.91 387.49 711.43 389.73 708.46 392.48 C 705.97 395.13 704.43 399.31 706.31 402.73 C 708.83 407.68 713.81 410.65 718.18 413.80 C 725.62 418.01 732.70 422.85 740.31 426.79 C 748.81 431.94 756.51 438.43 763.29 445.68 C 768.83 451.55 771.47 459.31 774.03 466.80 C 777.03 473.95 779.96 481.25 780.65 489.05 C 782.59 498.59 784.47 508.16 785.32 517.86 C 785.74 527.79 785.76 537.75 785.45 547.68 C 785.32 553.80 779.74 557.40 776.61 562.05 C 783.27 570.97 789.27 580.46 793.17 590.94 C 795.12 598.00 794.33 605.45 794.21 612.68 C 793.60 623.71 787.18 634.08 777.93 639.97 C 771.15 642.45 762.49 639.19 759.50 632.47 C 758.79 629.20 758.97 625.75 759.53 622.48 C 760.63 619.67 763.19 617.86 765.45 616.03 C 765.41 611.16 765.85 606.31 765.79 601.46 C 761.43 598.80 755.96 597.85 751.02 599.22 C 745.58 601.25 741.42 605.62 736.24 608.18 C 723.46 614.81 710.26 620.83 696.39 624.82 C 700.44 631.39 707.63 635.09 714.89 636.99 C 728.20 640.69 742.08 637.15 755.60 638.64 C 761.79 640.54 767.98 642.86 773.25 646.73 C 777.66 649.57 781.36 653.31 785.45 656.57 C 789.99 660.40 794.17 664.89 796.39 670.50 C 799.41 678.39 801.76 686.62 802.50 695.06 C 802.80 703.82 803.30 712.90 800.11 721.26 C 796.59 729.07 791.75 736.81 783.99 741.00 C 780.21 743.57 775.44 742.91 771.13 742.81 C 767.34 742.92 765.15 739.39 762.94 736.88 C 760.21 740.23 757.29 743.47 754.98 747.14 C 756.45 747.50 757.92 747.90 759.39 748.35 C 761.42 760.80 765.05 772.94 768.51 785.06 C 760.49 787.52 752.62 790.44 745.00 793.95 C 741.46 795.34 738.23 797.55 734.52 798.44 C 732.88 798.48 730.58 799.24 729.68 797.40 C 726.02 791.66 724.98 784.64 721.29 778.94 C 712.76 785.64 702.94 790.61 692.54 793.68 C 689.38 795.31 687.39 798.47 684.82 800.84 C 662.41 822.99 637.37 842.90 609.12 857.10 C 569.78 878.99 525.18 889.97 480.57 893.88 C 469.44 895.17 458.19 894.75 447.00 894.89 C 440.02 895.95 433.07 894.33 426.08 894.45 C 412.65 893.08 399.17 891.98 385.90 889.39 C 379.53 888.52 373.39 886.41 367.05 885.44 C 361.75 888.68 356.09 891.40 351.03 895.01 C 354.21 896.09 357.47 896.91 360.75 897.65 C 359.78 902.78 358.76 907.96 356.90 912.85 C 354.99 917.82 348.92 920.96 343.84 918.98 C 338.97 917.11 333.78 916.07 329.05 913.89 C 324.81 911.63 324.04 906.50 324.58 902.18 C 321.75 901.72 318.87 901.69 316.04 902.12 C 311.55 902.67 307.09 901.73 302.62 901.46 C 299.66 901.29 297.05 899.06 294.05 899.69 C 288.44 900.97 282.60 899.92 277.01 901.35 C 272.55 902.35 268.06 903.29 263.73 904.78 C 259.33 894.21 255.06 883.59 250.90 872.92 C 250.16 871.24 250.15 869.39 250.04 867.60 C 251.62 867.03 253.21 866.50 254.80 865.99 C 254.51 863.81 253.53 861.66 253.73 859.48 C 255.44 857.71 257.28 855.28 260.01 855.48 C 267.27 855.40 274.61 854.53 281.52 852.20 C 250.41 835.22 222.91 812.02 199.56 785.44 C 196.81 782.39 194.77 778.56 191.11 776.48 C 192.73 783.77 194.70 791.36 192.96 798.84 C 191.73 802.82 186.96 803.06 183.54 802.21 C 182.09 805.89 180.40 809.46 178.40 812.88 C 176.58 812.82 174.69 812.93 172.96 812.29 C 162.44 807.39 151.72 802.53 140.26 800.32 C 139.68 793.18 143.61 786.53 142.82 779.39 C 141.29 776.66 138.37 775.00 136.65 772.37 C 128.97 762.36 128.81 748.99 129.53 736.95 C 131.32 724.74 135.81 712.97 142.57 702.65 C 148.86 692.23 157.69 683.10 168.53 677.44 C 180.24 670.37 193.20 665.64 206.41 662.28 C 207.85 652.32 208.17 642.08 206.82 632.11 C 205.26 619.90 194.81 611.14 183.99 606.78 C 171.73 601.13 156.62 606.17 148.22 616.21 C 143.86 621.84 143.83 629.38 144.43 636.15 C 147.40 640.34 152.53 642.41 155.52 646.62 C 156.11 650.36 156.40 654.68 153.94 657.86 C 151.44 661.25 147.48 664.25 143.04 663.76 C 133.95 663.92 125.11 660.61 117.94 655.12 C 117.54 657.01 117.26 659.38 115.15 660.16 C 110.28 662.44 105.13 665.71 99.52 664.67 C 95.71 661.69 93.81 656.93 90.89 653.14 C 89.11 650.07 85.84 647.15 86.60 643.27 C 87.84 636.65 90.39 630.37 91.80 623.79 C 96.05 623.69 100.30 623.74 104.54 623.95 C 104.40 614.14 104.45 604.08 108.04 594.80 C 112.23 581.68 122.70 572.15 131.18 561.78 C 131.95 547.87 137.60 534.93 143.44 522.50 C 148.25 512.99 150.23 501.53 146.70 491.28 C 145.02 483.85 138.47 478.02 131.16 476.41 C 125.24 476.07 118.89 475.68 113.47 478.55 C 107.68 481.13 102.79 486.96 103.18 493.58 C 108.48 493.15 115.86 495.56 115.80 501.95 C 116.83 508.33 112.93 514.29 107.81 517.72 C 103.46 520.52 98.04 519.77 93.13 519.87 C 87.34 520.03 82.87 515.68 79.60 511.40 C 75.26 504.67 74.69 496.24 75.73 488.48 C 77.42 479.75 80.37 471.26 84.37 463.32 C 86.79 458.39 90.79 454.33 95.42 451.42 C 104.36 445.76 114.07 441.18 124.37 438.62 C 131.12 436.99 138.15 437.35 145.00 437.90 C 154.78 439.68 164.84 442.08 173.05 447.96 C 179.52 452.39 186.21 456.71 191.48 462.58 C 194.34 465.69 195.67 469.78 197.49 473.51 C 203.21 485.87 208.01 498.95 208.94 512.65 C 209.89 522.08 209.59 531.59 209.52 541.05 C 209.83 541.38 210.46 542.02 210.77 542.34 C 218.04 543.60 225.39 544.45 232.50 546.53 C 238.75 547.80 245.07 550.09 251.52 549.29 C 271.28 544.90 289.80 535.33 305.12 522.13 C 317.76 512.36 326.79 498.99 335.52 485.82 C 333.91 482.75 332.00 479.86 329.97 477.06 C 327.96 479.73 326.24 482.59 324.44 485.40 C 316.72 497.76 305.96 508.84 292.18 514.22 C 280.76 518.38 268.38 519.46 256.33 518.32 C 247.65 516.43 239.09 513.38 231.78 508.25 C 222.86 502.34 214.45 495.01 209.67 485.25 C 202.37 469.93 196.69 452.95 199.15 435.78 C 199.46 428.73 201.77 421.93 204.53 415.51 C 214.87 395.27 232.92 378.48 254.83 371.72 C 263.87 369.16 273.34 368.48 282.71 368.56 C 282.25 358.65 280.04 348.89 280.43 338.93 C 280.74 329.87 279.62 320.20 283.85 311.83 C 288.32 302.28 292.37 292.40 298.42 283.71 C 293.99 279.41 289.48 274.93 287.08 269.12 C 277.79 273.90 268.70 279.16 260.18 285.23 C 246.19 293.79 233.62 304.48 221.83 315.83 C 212.46 324.47 204.00 334.03 195.85 343.82 C 182.72 360.64 169.44 377.60 159.79 396.73 C 153.72 407.85 147.89 419.11 142.75 430.69 C 142.11 432.68 140.11 433.45 138.38 434.25 C 138.39 433.03 138.25 431.79 138.57 430.61 C 143.30 417.93 150.22 406.25 156.44 394.29 C 148.51 393.68 140.74 396.37 132.82 395.54 C 130.84 382.07 126.39 369.14 124.25 355.70 C 135.92 352.50 147.29 348.27 158.39 343.46 C 160.28 342.51 162.39 342.40 164.46 342.28 C 168.52 350.36 170.05 359.41 172.96 367.92 C 179.69 359.07 185.91 349.83 193.21 341.42 C 189.47 340.06 185.31 339.50 182.20 336.80 C 177.71 333.13 174.02 327.05 175.80 321.14 C 179.35 316.01 184.22 311.96 188.14 307.12 C 201.84 292.73 217.10 279.91 232.85 267.82 C 235.48 265.97 238.02 263.85 241.08 262.73 C 244.20 262.18 247.71 262.62 250.07 264.92 C 254.84 269.31 258.26 274.98 260.77 280.92 C 263.71 278.90 266.72 276.96 269.68 274.97 C 265.83 270.49 262.23 265.70 259.66 260.37 C 257.40 256.25 259.07 251.22 261.74 247.74 C 265.79 244.18 270.88 242.12 275.38 239.22 C 276.76 235.33 276.06 231.09 276.38 227.05 C 276.31 221.93 279.04 217.31 278.98 212.19 C 243.02 228.98 210.04 251.98 181.33 279.33 M 607.91 271.04 C 601.92 274.42 595.12 275.81 588.51 277.43 C 582.57 278.83 576.32 278.78 570.57 280.94 C 577.73 283.08 585.46 284.57 592.85 282.71 C 604.24 280.33 614.11 272.72 620.45 263.12 C 616.13 265.54 612.36 268.83 607.91 271.04 M 317.63 289.64 C 307.24 292.70 299.29 301.02 294.44 310.44 C 290.31 319.22 290.45 329.60 293.45 338.71 C 296.78 348.68 305.23 356.88 315.46 359.50 C 322.20 361.21 329.67 360.38 335.64 356.70 C 345.55 350.87 351.65 340.00 353.54 328.87 C 353.90 323.69 353.90 318.48 353.47 313.31 C 351.72 305.00 347.01 296.86 339.38 292.68 C 332.84 289.16 324.86 286.93 317.63 289.64 M 595.10 299.12 C 594.35 304.02 593.57 308.99 593.65 313.97 C 595.02 328.98 595.51 344.55 591.18 359.16 C 589.77 364.39 584.66 366.81 579.74 367.65 C 582.66 375.52 584.66 383.95 583.20 392.37 C 582.67 394.34 581.44 396.70 579.09 396.69 C 572.98 397.75 567.87 393.65 562.09 392.66 C 561.99 401.22 565.87 409.32 565.41 417.93 C 565.69 420.46 563.11 423.39 560.48 422.46 C 555.33 420.99 550.93 417.77 546.06 415.64 C 545.80 423.59 547.16 431.54 546.39 439.48 C 546.11 440.76 545.32 442.57 543.74 442.46 C 539.14 442.26 535.83 438.57 532.62 435.73 C 531.48 444.03 533.34 452.65 530.94 460.79 C 530.39 463.03 527.50 463.07 525.75 462.35 C 522.51 460.42 519.90 457.66 516.89 455.43 C 514.06 462.12 512.59 469.26 511.16 476.34 C 509.98 482.18 507.92 487.82 507.19 493.76 C 525.11 491.72 541.94 484.26 557.42 475.32 C 574.99 464.52 590.58 450.27 602.00 433.03 C 606.31 426.81 610.53 420.39 613.03 413.20 C 615.37 406.56 618.03 400.00 619.58 393.11 C 621.06 387.19 620.50 381.04 620.69 375.01 C 620.67 364.98 620.88 354.94 620.52 344.92 C 619.43 335.53 615.84 326.65 611.83 318.17 C 608.32 309.72 604.53 301.38 599.92 293.47 C 597.94 294.98 595.39 296.37 595.10 299.12 M 497.51 296.92 C 492.27 297.67 486.91 298.62 482.28 301.33 C 475.66 305.44 469.42 310.53 465.38 317.30 C 454.70 334.28 458.60 357.66 472.08 371.93 C 480.78 379.64 492.21 384.79 503.99 384.32 C 518.96 384.42 533.18 375.41 540.56 362.58 C 545.25 353.60 548.67 343.49 547.82 333.23 C 547.62 329.17 545.81 325.45 544.19 321.80 C 540.74 314.45 535.80 307.58 528.92 303.10 C 520.08 296.21 508.18 295.92 497.51 296.92 M 565.33 375.31 C 563.96 376.75 563.32 378.62 563.01 380.55 C 568.38 382.35 573.89 384.68 579.68 383.63 C 581.01 376.36 578.43 368.83 573.65 363.35 C 570.98 367.41 568.55 371.65 565.33 375.31 M 207.49 433.14 C 201.33 456.09 209.73 482.74 229.04 496.96 C 235.76 502.43 244.23 504.90 252.34 507.48 C 268.33 510.84 285.55 507.27 298.99 497.99 C 309.71 490.75 316.77 479.27 321.36 467.40 C 322.08 465.78 321.51 463.96 320.35 462.71 C 315.11 456.35 310.56 449.35 307.57 441.64 C 305.25 434.76 304.54 427.48 302.81 420.45 C 302.36 418.10 300.51 416.43 299.21 414.54 C 297.39 414.35 295.22 414.83 293.90 413.24 C 290.85 410.47 287.48 408.05 283.74 406.29 C 275.41 401.88 265.63 403.06 256.58 403.41 C 247.48 405.59 238.59 410.25 232.72 417.71 C 224.88 426.73 221.04 439.49 223.66 451.25 C 226.09 462.66 234.27 472.72 245.18 477.03 C 252.43 480.37 260.95 480.09 268.29 477.22 C 278.80 472.55 288.10 464.16 292.17 453.22 C 293.95 448.73 293.50 443.79 294.87 439.20 C 297.30 443.42 296.85 448.41 296.77 453.08 C 296.67 458.61 293.96 463.62 291.19 468.25 C 285.43 478.09 274.87 484.78 263.66 486.42 C 256.97 486.78 250.08 487.09 243.60 485.05 C 235.16 482.70 228.64 476.39 223.04 469.96 C 215.05 460.28 213.07 446.93 214.90 434.80 C 219.69 408.91 245.84 389.12 271.99 391.04 C 278.90 391.36 285.43 393.78 292.19 395.00 C 292.43 393.33 292.69 391.65 292.68 389.97 C 293.09 385.74 289.56 382.62 287.04 379.69 C 282.20 378.03 277.00 378.73 271.99 378.62 C 241.41 379.08 213.00 403.03 207.49 433.14 M 702.60 381.69 C 692.38 385.68 683.76 394.51 681.26 405.34 C 679.89 412.61 683.85 419.37 688.09 424.91 C 694.40 431.72 702.32 436.71 709.57 442.43 C 718.72 449.72 724.28 460.32 729.35 470.62 C 733.41 479.31 732.80 489.14 732.55 498.48 C 732.49 504.15 730.59 509.57 728.68 514.83 C 725.88 521.77 720.32 526.97 715.08 532.09 C 706.41 541.02 695.20 547.64 683.05 550.42 C 673.02 551.19 662.99 549.52 653.18 547.57 C 647.01 546.01 640.49 545.38 634.84 542.25 C 628.97 539.11 622.67 536.71 617.31 532.71 C 614.08 530.34 610.27 528.91 607.17 526.38 C 612.52 533.26 619.31 538.83 626.19 544.15 C 620.45 543.60 616.05 539.55 611.29 536.73 C 603.41 531.71 598.02 523.98 591.70 517.29 C 584.93 509.16 579.73 499.16 570.42 493.56 C 565.85 492.64 561.13 493.89 557.09 496.07 C 548.57 500.81 541.42 507.79 535.81 515.72 C 531.40 521.85 529.23 529.47 529.55 536.99 C 529.80 545.51 531.04 554.07 533.94 562.12 C 541.53 578.50 552.44 593.12 564.92 606.09 C 569.48 611.82 574.77 616.87 579.91 622.06 C 588.74 631.70 599.40 639.40 609.84 647.17 C 616.95 651.69 624.33 655.81 631.11 660.85 C 637.77 665.43 643.41 671.28 649.89 676.10 C 654.99 679.94 660.87 682.54 666.55 685.39 C 673.38 688.83 680.78 691.17 688.34 692.30 C 696.71 692.98 705.13 692.87 713.51 692.56 C 724.10 691.72 732.64 684.66 742.45 681.34 C 750.95 677.82 761.27 675.25 769.69 680.34 C 778.53 684.55 784.13 694.22 783.76 703.95 C 783.45 710.76 784.96 718.14 781.52 724.40 C 779.82 728.54 775.50 730.44 772.43 733.39 C 773.40 734.39 774.21 736.13 775.91 735.65 C 781.97 734.76 787.08 730.52 790.86 725.90 C 795.31 719.86 794.37 712.03 795.24 705.01 C 795.03 693.43 794.06 681.24 787.76 671.17 C 783.26 664.54 775.90 660.92 769.43 656.57 C 765.24 654.02 761.31 649.96 755.99 650.47 C 745.53 649.85 735.42 653.15 725.06 653.68 C 718.14 654.20 711.42 652.19 704.85 650.32 C 697.70 647.90 690.47 645.19 684.43 640.56 C 674.35 632.47 664.67 623.88 655.62 614.64 C 663.17 613.13 670.97 614.10 678.48 612.29 C 689.14 609.63 700.24 608.51 710.50 604.38 C 717.31 601.23 724.02 597.62 729.69 592.65 C 743.07 581.27 755.05 567.81 762.86 551.96 C 765.34 546.22 767.13 540.20 769.40 534.38 C 772.86 525.33 772.50 515.51 772.25 506.01 C 771.72 500.17 771.32 494.28 769.62 488.65 C 767.07 478.82 762.16 469.80 756.69 461.32 C 751.69 453.47 744.27 447.68 737.19 441.83 C 731.13 436.42 724.13 432.24 717.73 427.27 C 711.96 423.51 706.53 419.23 701.99 414.03 C 698.83 410.45 693.78 407.31 694.06 401.93 C 693.66 397.14 697.30 393.51 700.03 390.04 C 702.76 386.49 707.20 385.03 710.31 381.89 C 707.80 380.83 705.12 380.51 702.60 381.69 M 295.58 406.96 C 301.43 405.90 305.56 400.30 307.63 395.01 C 304.17 392.58 301.20 389.54 297.82 387.01 C 294.61 393.15 295.17 400.28 295.58 406.96 M 546.05 397.95 C 550.42 402.81 555.42 407.01 560.55 411.04 C 561.97 402.73 559.65 394.34 556.23 386.81 C 552.81 390.50 548.86 393.74 546.05 397.95 M 307.46 409.99 C 307.47 417.85 306.49 426.41 310.92 433.39 C 316.28 424.56 318.37 414.05 318.74 403.84 C 316.65 400.57 312.81 399.04 309.77 396.81 C 308.51 401.09 307.41 405.49 307.46 409.99 M 524.33 412.16 C 525.00 416.55 528.40 419.63 531.00 422.97 C 534.56 426.38 537.70 430.87 542.80 431.99 C 543.11 422.23 542.62 412.11 538.55 403.08 C 533.99 406.37 529.31 409.54 524.33 412.16 M 323.57 431.85 C 323.70 434.95 324.64 437.94 325.92 440.74 C 329.24 439.71 330.43 436.27 330.38 433.09 C 330.44 425.24 330.79 417.40 330.89 409.56 C 328.39 408.14 325.88 406.74 323.49 405.15 C 321.53 413.89 322.91 423.01 323.57 431.85 M 333.53 410.93 C 331.61 417.84 332.37 425.21 332.94 432.27 C 334.45 431.81 336.35 431.78 337.22 430.23 C 340.44 425.76 343.21 420.95 345.79 416.10 C 341.66 414.47 337.94 411.85 333.53 410.93 M 509.24 420.31 C 509.01 427.18 513.30 433.00 516.08 438.99 C 519.15 443.21 521.20 448.91 526.28 451.08 C 526.82 444.39 526.68 437.60 525.37 431.01 C 524.23 425.56 523.81 419.86 521.18 414.86 C 516.97 416.16 513.19 418.44 509.24 420.31 M 353.25 419.82 C 352.96 430.44 355.89 440.88 360.22 450.50 C 363.26 447.50 365.03 443.53 366.60 439.63 C 368.34 435.17 370.33 430.78 371.28 426.07 C 369.82 424.51 367.61 424.18 365.68 423.52 C 361.51 422.36 357.49 420.70 353.25 419.82 M 484.77 427.25 C 485.19 428.45 485.43 429.76 486.12 430.86 C 490.09 436.80 494.35 442.55 499.08 447.90 C 499.85 448.77 500.89 449.34 501.84 450.01 C 502.45 449.81 503.66 449.43 504.27 449.24 C 507.78 440.68 507.59 431.26 507.17 422.19 C 506.88 421.93 506.31 421.41 506.02 421.15 C 498.90 423.01 491.98 425.64 484.77 427.25 M 345.77 428.69 C 342.89 431.37 339.65 433.59 336.54 435.97 C 335.37 450.85 340.35 466.01 348.85 478.17 C 349.83 480.29 353.49 480.81 354.24 478.24 C 357.96 470.85 359.72 462.51 359.88 454.28 C 353.62 446.62 353.13 436.33 350.83 427.09 C 349.02 427.16 347.07 427.24 345.77 428.69 M 382.53 428.31 C 380.90 430.08 379.24 431.85 377.29 433.28 C 375.52 434.75 373.13 436.01 372.86 438.56 C 371.99 450.43 373.13 462.45 376.33 473.93 C 378.66 480.79 380.81 487.98 385.48 493.69 C 386.80 493.98 388.17 493.87 389.52 493.89 C 393.14 488.65 395.80 482.78 397.48 476.64 C 399.57 469.88 401.37 462.29 398.47 455.50 C 395.10 446.85 394.34 437.50 391.62 428.68 C 388.58 428.64 385.56 428.45 382.53 428.31 M 395.38 429.72 C 395.79 438.55 398.96 446.92 401.56 455.28 C 404.23 461.98 405.82 469.44 410.96 474.80 C 413.65 466.28 414.10 457.32 415.70 448.58 C 416.66 443.51 417.73 438.46 418.82 433.43 C 411.21 431.37 403.20 430.79 395.38 429.72 M 444.00 431.81 C 438.72 432.22 433.43 432.38 428.14 432.47 C 431.38 442.35 435.74 451.90 441.28 460.71 C 442.82 462.89 444.59 465.23 447.12 466.29 C 449.50 466.13 451.96 465.41 453.27 463.26 C 460.50 453.86 463.86 441.90 464.89 430.24 C 457.90 430.48 451.01 432.00 444.00 431.81 M 467.81 444.98 C 468.37 457.18 470.73 469.35 475.27 480.72 C 478.04 487.76 481.22 494.84 486.20 500.62 C 490.55 497.82 493.50 493.38 495.80 488.84 C 499.75 481.42 502.74 473.34 503.33 464.90 C 503.54 460.82 503.57 456.74 503.73 452.67 C 502.51 452.55 501.29 452.39 500.09 452.20 C 490.67 448.15 483.04 440.97 473.95 436.36 C 471.16 438.60 467.79 440.99 467.81 444.98 M 421.28 450.01 C 421.20 459.97 424.10 469.66 426.79 479.17 C 428.85 486.55 432.00 493.59 435.85 500.20 C 436.94 501.74 438.11 504.32 440.44 503.45 C 444.35 500.45 446.19 495.70 448.07 491.33 C 451.59 483.41 453.62 474.84 453.98 466.18 C 451.19 467.73 448.04 469.56 444.77 468.29 C 440.82 466.52 437.00 464.14 434.23 460.77 C 430.18 456.38 428.47 450.58 425.72 445.41 C 423.98 446.56 421.18 447.49 421.28 450.01 M 609.17 456.11 C 602.91 464.55 599.55 474.76 597.64 484.99 C 596.22 492.72 602.32 498.77 607.60 503.42 C 614.41 508.96 620.67 515.34 628.49 519.50 C 634.47 523.26 641.23 525.38 647.57 528.41 C 650.83 530.06 654.57 529.88 658.13 529.91 C 651.83 520.06 645.70 510.10 640.40 499.68 C 633.67 484.84 626.57 470.13 621.24 454.71 C 620.19 451.48 618.89 448.32 617.17 445.40 C 614.77 449.17 611.65 452.40 609.17 456.11 M 122.93 448.74 C 113.49 450.91 104.99 455.79 96.83 460.84 C 91.90 463.69 89.04 468.86 86.98 473.99 C 84.35 480.31 83.22 487.20 83.39 494.04 C 82.54 503.72 91.73 512.03 101.00 512.40 C 104.35 512.42 106.66 509.63 108.43 507.13 C 108.10 506.64 107.45 505.64 107.12 505.15 C 104.63 505.54 102.06 506.39 99.55 505.63 C 92.40 500.44 92.12 489.96 95.51 482.50 C 98.37 476.75 102.17 471.06 107.79 467.69 C 119.19 461.44 133.60 460.66 145.27 466.66 C 150.67 470.64 154.69 476.19 158.19 481.85 C 163.05 489.92 163.10 499.75 162.25 508.85 C 160.78 519.40 154.90 528.50 149.44 537.39 C 146.30 542.29 144.42 548.11 144.81 553.97 C 148.31 552.98 151.29 550.81 154.65 549.49 C 161.88 546.18 169.85 545.26 177.51 543.41 C 180.74 532.67 186.10 522.65 188.34 511.62 C 188.88 505.89 188.81 500.10 188.27 494.38 C 187.23 487.87 186.40 480.96 182.49 475.44 C 179.06 470.29 173.86 466.77 169.45 462.55 C 162.29 456.63 154.12 451.76 145.22 449.00 C 137.92 447.26 130.28 447.40 122.93 448.74 M 334.14 514.23 C 328.81 522.25 323.56 530.33 318.38 538.45 C 311.99 548.15 303.95 556.63 295.32 564.35 C 289.10 568.84 282.82 573.32 275.90 576.69 C 276.25 577.99 276.61 579.33 277.52 580.38 C 280.33 584.07 282.53 588.17 285.05 592.06 C 285.69 593.01 286.40 594.40 287.81 593.84 C 292.44 592.31 295.62 588.29 298.91 584.90 C 310.26 570.86 317.36 554.10 326.88 538.89 C 332.48 529.95 336.59 520.15 339.58 510.07 C 337.07 510.28 335.41 512.26 334.14 514.23 M 376.58 520.71 C 365.97 525.30 357.73 533.65 349.14 541.13 C 338.85 551.19 330.13 562.97 324.33 576.19 C 321.93 581.96 319.72 588.01 320.22 594.38 C 321.52 594.88 322.88 596.04 324.33 595.27 C 329.27 593.16 333.49 589.71 338.22 587.19 C 344.34 584.02 350.68 581.08 357.49 579.76 C 366.94 578.68 376.33 580.66 385.77 580.60 C 392.98 581.68 400.50 582.41 407.01 585.97 C 412.45 588.91 417.97 591.68 423.42 594.62 C 425.14 595.75 427.26 595.57 429.23 595.66 C 432.41 588.47 436.17 581.07 435.97 573.03 C 435.31 566.23 430.39 560.20 423.84 558.23 C 413.28 554.86 402.00 555.43 391.04 555.39 C 382.40 555.40 374.33 558.90 366.80 562.79 C 361.18 565.56 355.22 567.60 349.81 570.77 C 347.13 572.26 344.58 574.20 341.48 574.70 C 343.57 572.06 346.04 569.76 348.62 567.61 C 358.98 558.85 370.78 551.20 384.05 547.87 C 394.32 546.50 404.73 547.28 415.06 547.41 C 420.07 547.37 425.01 548.29 429.98 548.87 C 434.54 549.53 438.83 552.39 443.55 551.46 C 446.62 550.53 449.32 548.75 452.03 547.08 C 459.58 542.43 467.28 537.85 473.84 531.83 C 475.26 530.73 475.80 529.03 476.21 527.36 C 468.83 525.00 461.50 522.41 453.89 520.90 C 448.07 519.75 442.18 518.93 436.43 517.48 C 427.37 515.49 418.30 513.01 408.94 513.33 C 397.70 512.56 386.54 515.65 376.58 520.71 M 450.90 561.01 C 446.01 563.12 444.80 568.77 443.34 573.34 C 441.71 581.64 439.75 590.05 440.62 598.57 C 442.35 598.61 444.19 598.74 445.70 597.70 C 459.50 589.94 474.37 583.01 490.41 582.08 C 497.26 580.83 504.09 582.84 510.95 582.46 C 510.78 580.04 510.75 577.56 509.81 575.30 C 506.99 567.83 504.13 560.18 499.14 553.85 C 495.75 549.40 492.25 545.00 488.12 541.22 C 474.53 545.47 463.42 554.58 450.90 561.01 M 158.27 559.46 C 142.56 567.72 127.56 578.86 118.72 594.59 C 113.22 604.05 113.23 615.41 113.50 626.03 C 113.94 631.46 114.29 637.21 116.85 642.13 C 121.78 648.74 129.73 651.82 137.06 654.96 C 140.10 656.25 143.49 655.91 146.69 655.61 C 146.81 653.63 147.20 651.58 146.56 649.65 C 141.99 647.05 135.62 646.18 133.42 640.70 C 130.09 632.01 131.41 622.27 134.46 613.69 C 136.21 605.43 140.75 597.64 147.62 592.64 C 153.02 589.03 158.98 586.37 165.00 583.98 C 170.14 581.69 175.95 582.14 181.41 582.63 C 188.70 584.43 195.21 588.47 201.29 592.76 C 211.41 600.25 221.02 609.34 225.72 621.29 C 228.17 626.92 227.49 633.24 226.69 639.16 C 226.09 645.35 226.00 651.59 226.15 657.82 C 238.61 657.94 251.37 658.30 263.36 654.35 C 264.68 653.78 266.35 653.39 266.79 651.82 C 271.05 642.86 269.67 632.65 269.63 623.05 C 268.49 609.35 261.83 596.84 254.47 585.49 C 247.22 576.11 238.68 567.20 227.68 562.31 C 221.52 559.64 215.59 556.22 209.02 554.63 C 200.69 553.77 192.29 554.25 183.94 554.43 C 175.20 554.64 166.32 555.89 158.27 559.46 M 766.57 576.56 C 763.47 580.37 759.85 583.69 756.52 587.29 C 759.99 588.05 763.56 588.62 766.79 590.19 C 772.55 592.70 775.54 598.95 777.15 604.68 C 777.60 609.10 778.22 613.56 778.20 618.02 C 777.60 623.93 771.81 626.95 766.85 628.80 C 767.71 629.74 768.54 630.76 769.54 631.61 C 774.31 632.05 779.29 630.01 782.46 626.44 C 785.74 622.00 787.70 616.51 787.50 610.95 C 787.55 601.74 788.07 591.86 783.43 583.54 C 780.51 578.34 777.56 572.96 772.89 569.10 C 770.45 571.30 768.69 574.08 766.57 576.56 M 333.71 598.63 C 326.16 603.19 318.07 607.51 312.42 614.46 C 305.46 626.32 303.09 640.43 303.68 654.03 C 304.66 666.38 303.78 678.82 305.23 691.14 C 305.76 703.41 307.73 715.61 311.60 727.29 C 314.39 735.10 316.50 743.17 320.15 750.65 C 323.25 758.73 326.57 766.76 330.73 774.37 C 343.23 793.34 357.93 810.98 375.22 825.79 C 382.32 831.58 390.35 836.04 398.04 840.97 C 405.92 845.76 413.44 851.20 421.84 855.10 C 427.42 857.81 433.39 859.61 439.03 862.21 C 455.66 869.02 474.11 872.09 491.97 869.34 C 489.16 865.71 485.24 863.21 482.16 859.86 C 477.97 855.37 473.28 851.36 469.43 846.56 C 464.22 840.27 458.52 834.17 455.29 826.55 C 453.43 821.77 448.56 819.41 445.36 815.69 C 441.09 810.64 436.03 806.33 431.60 801.41 C 423.49 790.77 416.15 778.87 414.40 765.34 C 414.19 762.14 412.81 759.33 410.52 757.13 C 417.08 752.97 422.49 747.39 428.43 742.45 C 431.89 739.69 431.36 734.86 431.44 730.92 C 431.48 724.39 430.29 717.38 425.16 712.84 C 417.74 704.88 406.01 705.41 396.03 705.43 C 384.41 704.94 372.83 707.53 362.27 712.30 C 355.27 715.49 347.33 718.14 342.84 724.84 C 337.00 732.41 336.54 742.37 333.11 750.97 C 332.48 743.28 330.42 734.76 334.57 727.69 C 339.03 718.29 346.85 710.31 356.64 706.53 C 367.50 701.15 379.69 699.88 391.23 696.64 C 399.79 696.08 408.29 698.13 416.85 697.81 C 417.18 697.67 417.85 697.40 418.18 697.26 C 421.28 693.67 422.50 688.79 422.64 684.13 C 422.91 678.45 423.11 672.72 422.41 667.06 C 421.09 662.74 417.93 659.25 414.19 656.84 C 409.85 654.07 405.42 651.28 400.50 649.67 C 389.66 646.42 378.40 644.01 367.03 644.59 C 352.19 644.44 337.93 651.24 327.28 661.30 C 323.46 664.72 321.22 669.40 318.45 673.63 C 318.46 671.99 318.29 670.31 318.79 668.74 C 321.15 661.86 324.45 655.36 328.11 649.11 C 329.72 643.34 325.55 638.11 322.97 633.31 C 330.45 633.78 335.86 641.50 343.73 640.59 C 349.49 639.39 354.71 636.22 360.59 635.39 C 370.07 633.43 379.77 634.86 389.19 636.40 C 397.24 637.70 404.35 641.96 412.00 644.51 C 418.13 641.06 421.31 634.09 423.14 627.58 C 423.81 621.55 424.03 615.41 423.53 609.37 C 422.80 603.71 417.34 600.85 413.21 597.81 C 406.18 592.38 397.59 589.48 389.01 587.59 C 380.04 586.91 370.99 587.05 362.00 587.47 C 351.90 589.14 342.74 594.05 333.71 598.63 M 441.13 608.18 C 438.73 609.20 436.01 610.23 434.73 612.71 C 431.59 618.13 431.16 624.53 430.12 630.58 C 429.22 635.78 427.53 640.90 427.61 646.24 C 432.07 646.46 436.45 645.31 440.92 645.40 C 448.65 645.36 456.63 644.59 464.10 647.05 C 470.20 648.89 474.87 653.43 480.30 656.56 C 481.76 655.26 483.18 653.87 484.20 652.17 C 487.43 646.91 491.25 641.98 495.73 637.72 C 500.21 633.44 504.69 628.74 510.72 626.72 C 518.80 624.42 527.35 625.16 535.45 623.01 C 534.86 619.84 533.56 616.86 531.76 614.20 C 527.46 607.48 524.62 599.77 519.09 593.89 C 515.57 589.92 509.69 590.98 504.96 590.43 C 498.75 589.64 492.47 589.26 486.23 589.77 C 470.06 592.78 456.35 602.51 441.13 608.18 M 514.99 633.07 C 502.54 638.70 491.94 649.77 488.75 663.26 C 490.06 678.75 490.60 694.75 486.09 709.84 C 482.66 720.24 479.00 730.57 476.21 741.17 C 472.37 754.32 468.25 767.45 465.85 780.96 C 464.86 788.83 464.97 796.84 465.63 804.74 C 468.58 818.23 475.37 830.55 483.39 841.67 C 492.73 853.96 506.27 861.95 519.54 869.32 C 527.50 873.66 536.91 873.99 545.75 873.37 C 559.49 871.01 572.76 866.08 584.84 859.13 C 581.90 855.04 578.33 851.33 576.33 846.63 C 575.12 844.59 574.55 841.83 572.36 840.62 C 566.84 838.25 560.99 836.48 556.11 832.85 C 550.57 828.27 545.60 822.62 543.31 815.69 C 539.14 804.12 540.24 791.67 540.50 779.63 C 542.08 765.54 548.14 752.52 551.20 738.76 C 552.61 731.41 555.77 724.54 557.21 717.19 C 560.60 705.75 558.95 693.71 560.20 682.00 C 559.81 677.31 559.88 672.57 559.25 667.92 C 555.80 657.95 551.18 648.37 545.52 639.46 C 543.58 636.48 541.14 633.36 537.44 632.67 C 530.13 630.91 522.23 631.10 514.99 633.07 M 437.12 654.05 C 433.61 654.91 429.81 655.36 426.94 657.77 C 428.67 661.83 430.80 665.74 432.18 669.96 C 433.68 676.54 434.07 683.57 432.05 690.09 C 430.93 694.46 428.64 698.37 426.70 702.41 C 430.89 705.23 433.64 709.65 435.77 714.13 C 438.13 719.07 438.66 724.61 440.39 729.77 C 446.35 731.05 452.71 729.28 458.53 731.55 C 461.57 732.68 465.66 734.09 468.22 731.24 C 472.89 727.60 473.47 721.46 474.98 716.18 C 478.99 704.29 478.63 691.54 478.38 679.15 C 477.98 670.11 474.17 660.69 466.16 655.85 C 457.14 651.35 446.71 652.53 437.12 654.05 M 177.04 685.09 C 171.98 687.35 168.06 691.38 163.95 694.97 C 158.45 699.96 154.39 706.20 150.13 712.22 C 145.76 718.51 142.71 725.65 140.69 733.01 C 139.82 739.62 139.98 746.34 140.56 752.97 C 141.28 760.09 144.80 766.49 148.69 772.36 C 151.41 776.42 155.91 778.65 160.19 780.69 C 168.17 784.53 175.50 789.57 183.45 793.46 C 184.59 787.12 181.04 781.44 177.44 776.59 C 172.45 769.31 171.11 760.26 171.10 751.61 C 171.10 746.12 170.88 740.43 172.96 735.25 C 174.68 730.88 177.42 727.00 180.28 723.33 C 183.64 718.90 189.02 716.90 193.95 714.80 C 205.16 709.58 219.09 714.05 227.00 723.05 C 231.85 729.35 235.54 736.48 238.48 743.85 C 242.08 752.15 244.09 761.22 249.18 768.83 C 253.69 775.08 260.47 779.05 266.78 783.22 C 274.95 788.37 285.99 790.96 294.70 785.57 C 300.75 780.85 303.73 773.27 305.01 765.91 C 306.39 761.13 304.04 756.51 303.20 751.87 C 300.34 740.89 295.98 730.31 293.97 719.10 C 293.80 717.01 291.49 717.61 290.09 717.46 C 280.24 716.88 271.83 710.67 265.68 703.34 C 260.67 696.96 253.96 692.29 247.80 687.13 C 241.32 681.78 233.47 677.72 224.94 677.36 C 219.95 677.33 214.99 676.18 210.00 676.81 C 198.75 678.33 187.49 680.56 177.04 685.09 M 603.93 698.08 C 602.23 699.57 602.65 701.98 602.38 703.98 C 601.30 713.90 598.87 723.61 596.56 733.30 C 594.42 741.39 592.66 749.61 589.65 757.44 C 605.32 757.01 621.86 759.79 634.78 769.22 C 639.53 772.69 644.88 775.17 649.99 778.04 C 652.45 779.44 655.13 780.42 657.89 781.08 C 671.13 784.88 685.69 784.84 698.59 779.77 C 711.28 775.04 722.60 767.40 733.43 759.39 C 738.46 755.11 742.98 750.25 747.09 745.08 C 756.82 733.67 764.77 720.32 767.71 705.47 C 768.13 702.46 768.41 698.76 764.85 697.71 C 756.29 702.01 752.74 711.68 746.04 718.04 C 738.33 726.94 727.62 732.97 716.17 735.48 C 705.01 736.54 693.17 736.22 683.04 730.87 C 674.19 726.55 668.24 718.42 660.69 712.39 C 653.31 705.96 646.69 698.13 637.31 694.57 C 626.50 690.05 613.88 692.47 603.93 698.08 M 579.19 701.02 C 578.38 707.46 575.98 713.53 574.63 719.85 C 570.12 739.37 558.70 757.20 558.20 777.61 C 557.18 786.03 557.27 794.57 557.71 803.03 C 558.03 809.04 561.86 814.05 566.65 817.39 C 564.85 807.69 564.98 797.79 565.47 787.96 C 565.76 779.44 568.64 771.30 571.32 763.30 C 573.82 757.66 574.76 751.54 576.50 745.66 C 579.57 734.49 579.46 722.83 580.76 711.40 C 581.90 705.58 581.60 699.59 580.99 693.73 C 579.97 696.04 579.44 698.51 579.19 701.02 M 445.04 739.98 C 438.69 743.28 432.27 747.10 427.92 752.94 C 424.04 758.08 423.60 764.94 424.66 771.10 C 427.29 778.51 432.58 784.52 437.65 790.38 C 440.79 793.34 444.02 796.52 448.14 798.05 C 449.59 783.24 456.08 769.67 460.41 755.59 C 461.43 752.08 462.36 748.34 461.57 744.70 C 457.77 739.84 450.83 737.51 445.04 739.98 M 325.41 834.47 C 321.14 843.04 314.05 850.42 305.17 854.18 C 292.08 859.32 277.66 859.23 263.86 858.24 C 260.55 856.88 255.31 857.15 255.16 861.75 C 260.25 866.01 264.66 871.07 270.28 874.70 C 280.05 881.96 291.59 886.26 303.15 889.72 C 315.40 891.99 328.25 890.26 339.80 885.71 C 349.19 882.40 356.97 875.86 364.00 869.00 C 367.40 865.20 370.82 861.30 373.09 856.69 C 371.12 857.06 368.99 857.13 367.27 858.26 C 357.53 864.30 348.40 871.71 337.41 875.39 C 332.71 876.58 328.10 878.72 323.17 878.47 C 326.58 875.49 331.04 874.26 334.81 871.86 C 342.04 867.30 348.66 861.76 354.37 855.40 C 358.04 850.85 361.11 845.87 364.47 841.10 C 360.03 835.69 354.59 831.27 349.91 826.09 C 344.20 820.47 338.76 814.58 332.93 809.10 C 332.27 817.98 329.55 826.60 325.41 834.47 Z" />
<path fill="#fefefe" opacity="1.00" d=" M 288.58 219.67 C 292.65 205.54 300.55 191.90 312.89 183.49 C 308.44 194.47 302.91 206.15 305.64 218.27 C 309.12 222.51 313.61 226.24 318.86 228.04 C 323.44 229.32 328.28 229.49 333.00 229.08 C 337.99 228.40 342.96 229.67 347.96 229.45 C 354.34 229.75 360.63 228.01 367.00 228.78 C 365.25 231.10 363.10 233.06 360.73 234.73 C 351.99 241.60 343.76 249.08 335.63 256.64 C 330.02 262.10 324.47 268.01 317.27 271.35 C 311.26 273.47 305.88 269.07 301.69 265.33 C 288.54 254.75 283.02 235.61 288.58 219.67 Z" />
<path fill="#fefefe" opacity="1.00" d=" M 627.03 192.12 C 627.71 192.15 629.07 192.19 629.75 192.22 C 632.30 198.49 633.86 205.22 633.66 212.02 C 633.62 218.93 634.25 226.76 629.50 232.43 C 625.50 237.41 622.52 243.41 617.17 247.15 C 612.43 250.95 606.82 253.64 600.86 254.85 C 590.26 257.77 579.32 258.97 568.52 260.87 C 565.87 261.36 562.98 261.94 561.07 264.01 C 556.48 269.96 554.47 277.66 548.95 282.94 C 547.40 281.08 546.02 279.02 545.57 276.60 C 544.14 269.36 540.82 262.53 540.58 255.07 C 540.37 249.24 538.71 242.75 533.48 239.42 C 530.13 238.84 526.65 238.97 523.30 239.45 C 512.90 242.77 503.22 248.11 494.25 254.28 C 486.54 259.12 478.55 263.68 471.81 269.88 C 468.20 272.88 464.81 276.15 461.42 279.40 C 452.36 287.39 445.09 297.11 437.41 306.38 C 430.44 314.52 424.95 323.81 420.60 333.59 C 414.47 348.08 408.14 362.58 404.21 377.86 C 398.84 374.28 396.13 368.12 392.01 363.35 C 388.21 367.00 385.03 371.47 380.30 374.01 C 380.05 363.01 380.29 352.01 380.09 341.01 C 379.09 330.88 380.19 320.60 377.97 310.59 C 374.63 294.78 372.42 278.78 369.63 262.86 C 368.71 255.60 366.98 248.34 367.54 240.97 C 368.99 234.16 372.55 227.27 378.98 223.96 C 394.79 215.51 412.40 210.89 430.11 208.58 C 435.08 208.53 440.03 207.44 445.00 208.07 C 450.66 208.72 456.33 207.19 461.97 208.16 C 470.03 208.69 478.24 208.08 486.15 210.09 C 492.63 211.76 499.46 211.89 505.79 214.16 C 503.21 214.63 500.57 214.53 497.96 214.56 C 492.63 214.54 487.32 215.48 481.99 215.02 C 477.35 214.53 472.65 214.50 468.04 215.17 C 450.89 216.38 433.05 218.89 418.26 228.29 C 413.44 231.70 408.21 235.08 405.41 240.47 C 403.31 244.62 400.72 248.73 400.12 253.42 C 409.00 247.49 418.18 241.14 428.90 239.28 C 435.31 238.17 440.96 242.49 445.03 246.95 C 446.24 248.03 447.04 250.08 448.96 249.88 C 452.20 248.33 454.87 245.81 457.87 243.86 C 470.98 235.17 485.08 226.84 500.91 224.64 C 509.60 224.58 518.29 223.15 526.97 224.27 C 547.49 224.22 567.42 231.14 588.01 229.76 C 596.23 230.01 603.54 225.58 609.99 220.98 C 614.13 217.92 618.44 214.67 620.99 210.10 C 624.10 204.50 624.47 197.94 627.03 192.12 Z" />
<path fill="#fefefe" opacity="1.00" d=" M 607.91 271.04 C 612.36 268.83 616.13 265.54 620.45 263.12 C 614.11 272.72 604.24 280.33 592.85 282.71 C 585.46 284.57 577.73 283.08 570.57 280.94 C 576.32 278.78 582.57 278.83 588.51 277.43 C 595.12 275.81 601.92 274.42 607.91 271.04 Z" />
<path fill="#fefefe" opacity="1.00" d=" M 317.63 289.64 C 324.86 286.93 332.84 289.16 339.38 292.68 C 347.01 296.86 351.72 305.00 353.47 313.31 C 353.90 318.48 353.90 323.69 353.54 328.87 C 351.65 340.00 345.55 350.87 335.64 356.70 C 329.67 360.38 322.20 361.21 315.46 359.50 C 305.23 356.88 296.78 348.68 293.45 338.71 C 290.45 329.60 290.31 319.22 294.44 310.44 C 299.29 301.02 307.24 292.70 317.63 289.64 M 313.60 306.71 C 312.26 308.35 313.81 310.44 314.34 312.12 C 313.26 313.56 312.24 315.04 311.26 316.55 C 309.07 316.52 306.90 316.34 304.74 316.12 C 302.68 321.98 302.52 328.86 305.64 334.39 C 308.87 340.63 315.90 344.92 322.97 344.44 C 329.27 344.38 334.93 340.35 338.31 335.23 C 343.13 326.03 340.48 313.18 331.34 307.68 C 325.97 304.85 319.24 304.50 313.60 306.71 Z" />
<path fill="#fefefe" opacity="1.00" d=" M 595.10 299.12 C 595.39 296.37 597.94 294.98 599.92 293.47 C 604.53 301.38 608.32 309.72 611.83 318.17 C 615.84 326.65 619.43 335.53 620.52 344.92 C 620.88 354.94 620.67 364.98 620.69 375.01 C 620.50 381.04 621.06 387.19 619.58 393.11 C 618.03 400.00 615.37 406.56 613.03 413.20 C 610.53 420.39 606.31 426.81 602.00 433.03 C 590.58 450.27 574.99 464.52 557.42 475.32 C 541.94 484.26 525.11 491.72 507.19 493.76 C 507.92 487.82 509.98 482.18 511.16 476.34 C 512.59 469.26 514.06 462.12 516.89 455.43 C 519.90 457.66 522.51 460.42 525.75 462.35 C 527.50 463.07 530.39 463.03 530.94 460.79 C 533.34 452.65 531.48 444.03 532.62 435.73 C 535.83 438.57 539.14 442.26 543.74 442.46 C 545.32 442.57 546.11 440.76 546.39 439.48 C 547.16 431.54 545.80 423.59 546.06 415.64 C 550.93 417.77 555.33 420.99 560.48 422.46 C 563.11 423.39 565.69 420.46 565.41 417.93 C 565.87 409.32 561.99 401.22 562.09 392.66 C 567.87 393.65 572.98 397.75 579.09 396.69 C 581.44 396.70 582.67 394.34 583.20 392.37 C 584.66 383.95 582.66 375.52 579.74 367.65 C 584.66 366.81 589.77 364.39 591.18 359.16 C 595.51 344.55 595.02 328.98 593.65 313.97 C 593.57 308.99 594.35 304.02 595.10 299.12 Z" />
<path fill="#fefefe" opacity="1.00" d=" M 497.51 296.92 C 508.18 295.92 520.08 296.21 528.92 303.10 C 535.80 307.58 540.74 314.45 544.19 321.80 C 545.81 325.45 547.62 329.17 547.82 333.23 C 548.67 343.49 545.25 353.60 540.56 362.58 C 533.18 375.41 518.96 384.42 503.99 384.32 C 492.21 384.79 480.78 379.64 472.08 371.93 C 458.60 357.66 454.70 334.28 465.38 317.30 C 469.42 310.53 475.66 305.44 482.28 301.33 C 486.91 298.62 492.27 297.67 497.51 296.92 M 487.33 317.43 C 488.87 319.99 490.92 322.65 490.57 325.83 C 489.74 328.10 488.18 330.11 486.07 331.32 C 482.61 332.36 478.81 332.05 475.62 330.35 C 475.53 339.18 476.68 349.17 483.48 355.55 C 493.73 366.25 513.96 364.66 521.94 352.01 C 525.42 346.25 527.39 339.06 525.49 332.43 C 523.91 325.77 519.35 320.14 513.70 316.43 C 505.58 311.82 495.27 313.03 487.33 317.43 Z" />
<path fill="#000000" opacity="1.00" d=" M 313.60 306.71 C 319.24 304.50 325.97 304.85 331.34 307.68 C 340.48 313.18 343.13 326.03 338.31 335.23 C 334.93 340.35 329.27 344.38 322.97 344.44 C 315.90 344.92 308.87 340.63 305.64 334.39 C 302.52 328.86 302.68 321.98 304.74 316.12 C 306.90 316.34 309.07 316.52 311.26 316.55 C 312.24 315.04 313.26 313.56 314.34 312.12 C 313.81 310.44 312.26 308.35 313.60 306.71 Z" />
<path fill="#000000" opacity="1.00" d=" M 487.33 317.43 C 495.27 313.03 505.58 311.82 513.70 316.43 C 519.35 320.14 523.91 325.77 525.49 332.43 C 527.39 339.06 525.42 346.25 521.94 352.01 C 513.96 364.66 493.73 366.25 483.48 355.55 C 476.68 349.17 475.53 339.18 475.62 330.35 C 478.81 332.05 482.61 332.36 486.07 331.32 C 488.18 330.11 489.74 328.10 490.57 325.83 C 490.92 322.65 488.87 319.99 487.33 317.43 Z" />
<path fill="#fefefe" opacity="1.00" d=" M 565.33 375.31 C 568.55 371.65 570.98 367.41 573.65 363.35 C 578.43 368.83 581.01 376.36 579.68 383.63 C 573.89 384.68 568.38 382.35 563.01 380.55 C 563.32 378.62 563.96 376.75 565.33 375.31 Z" />
<path fill="#000000" opacity="1.00" d=" M 190.72 375.79 C 195.65 374.11 201.66 376.55 203.51 381.54 C 205.67 385.83 203.41 391.02 199.86 393.79 C 195.74 397.03 189.12 396.23 186.12 391.86 C 184.59 389.38 183.14 386.27 184.28 383.37 C 185.02 379.95 187.74 377.39 190.72 375.79 Z" />
<path fill="#fefefe" opacity="1.00" d=" M 207.49 433.14 C 213.00 403.03 241.41 379.08 271.99 378.62 C 277.00 378.73 282.20 378.03 287.04 379.69 C 289.56 382.62 293.09 385.74 292.68 389.97 C 292.69 391.65 292.43 393.33 292.19 395.00 C 285.43 393.78 278.90 391.36 271.99 391.04 C 245.84 389.12 219.69 408.91 214.90 434.80 C 213.07 446.93 215.05 460.28 223.04 469.96 C 228.64 476.39 235.16 482.70 243.60 485.05 C 250.08 487.09 256.97 486.78 263.66 486.42 C 274.87 484.78 285.43 478.09 291.19 468.25 C 293.96 463.62 296.67 458.61 296.77 453.08 C 296.85 448.41 297.30 443.42 294.87 439.20 C 293.50 443.79 293.95 448.73 292.17 453.22 C 288.10 464.16 278.80 472.55 268.29 477.22 C 260.95 480.09 252.43 480.37 245.18 477.03 C 234.27 472.72 226.09 462.66 223.66 451.25 C 221.04 439.49 224.88 426.73 232.72 417.71 C 238.59 410.25 247.48 405.59 256.58 403.41 C 265.63 403.06 275.41 401.88 283.74 406.29 C 287.48 408.05 290.85 410.47 293.90 413.24 C 295.22 414.83 297.39 414.35 299.21 414.54 C 300.51 416.43 302.36 418.10 302.81 420.45 C 304.54 427.48 305.25 434.76 307.57 441.64 C 310.56 449.35 315.11 456.35 320.35 462.71 C 321.51 463.96 322.08 465.78 321.36 467.40 C 316.77 479.27 309.71 490.75 298.99 497.99 C 285.55 507.27 268.33 510.84 252.34 507.48 C 244.23 504.90 235.76 502.43 229.04 496.96 C 209.73 482.74 201.33 456.09 207.49 433.14 M 246.14 426.93 C 247.88 428.81 250.40 430.52 250.53 433.34 C 251.37 436.73 248.77 439.68 246.17 441.44 C 243.27 442.17 240.26 441.82 237.38 441.20 C 237.23 447.97 238.66 454.90 242.30 460.69 C 249.10 471.12 264.82 474.11 275.01 467.01 C 280.37 463.75 284.00 458.12 285.49 452.10 C 286.28 445.34 285.98 437.91 281.71 432.27 C 277.54 425.68 269.83 421.56 262.01 422.16 C 256.29 421.75 250.99 424.19 246.14 426.93 Z" />
<path fill="#fefefe" opacity="1.00" d=" M 702.60 381.69 C 705.12 380.51 707.80 380.83 710.31 381.89 C 707.20 385.03 702.76 386.49 700.03 390.04 C 697.30 393.51 693.66 397.14 694.06 401.93 C 693.78 407.31 698.83 410.45 701.99 414.03 C 706.53 419.23 711.96 423.51 717.73 427.27 C 724.13 432.24 731.13 436.42 737.19 441.83 C 744.27 447.68 751.69 453.47 756.69 461.32 C 762.16 469.80 767.07 478.82 769.62 488.65 C 771.32 494.28 771.72 500.17 772.25 506.01 C 772.50 515.51 772.86 525.33 769.40 534.38 C 767.13 540.20 765.34 546.22 762.86 551.96 C 755.05 567.81 743.07 581.27 729.69 592.65 C 724.02 597.62 717.31 601.23 710.50 604.38 C 700.24 608.51 689.14 609.63 678.48 612.29 C 670.97 614.10 663.17 613.13 655.62 614.64 C 664.67 623.88 674.35 632.47 684.43 640.56 C 690.47 645.19 697.70 647.90 704.85 650.32 C 711.42 652.19 718.14 654.20 725.06 653.68 C 735.42 653.15 745.53 649.85 755.99 650.47 C 761.31 649.96 765.24 654.02 769.43 656.57 C 775.90 660.92 783.26 664.54 787.76 671.17 C 794.06 681.24 795.03 693.43 795.24 705.01 C 794.37 712.03 795.31 719.86 790.86 725.90 C 787.08 730.52 781.97 734.76 775.91 735.65 C 774.21 736.13 773.40 734.39 772.43 733.39 C 775.50 730.44 779.82 728.54 781.52 724.40 C 784.96 718.14 783.45 710.76 783.76 703.95 C 784.13 694.22 778.53 684.55 769.69 680.34 C 761.27 675.25 750.95 677.82 742.45 681.34 C 732.64 684.66 724.10 691.72 713.51 692.56 C 705.13 692.87 696.71 692.98 688.34 692.30 C 680.78 691.17 673.38 688.83 666.55 685.39 C 660.87 682.54 654.99 679.94 649.89 676.10 C 643.41 671.28 637.77 665.43 631.11 660.85 C 624.33 655.81 616.95 651.69 609.84 647.17 C 599.40 639.40 588.74 631.70 579.91 622.06 C 574.77 616.87 569.48 611.82 564.92 606.09 C 552.44 593.12 541.53 578.50 533.94 562.12 C 531.04 554.07 529.80 545.51 529.55 536.99 C 529.23 529.47 531.40 521.85 535.81 515.72 C 541.42 507.79 548.57 500.81 557.09 496.07 C 561.13 493.89 565.85 492.64 570.42 493.56 C 579.73 499.16 584.93 509.16 591.70 517.29 C 598.02 523.98 603.41 531.71 611.29 536.73 C 616.05 539.55 620.45 543.60 626.19 544.15 C 619.31 538.83 612.52 533.26 607.17 526.38 C 610.27 528.91 614.08 530.34 617.31 532.71 C 622.67 536.71 628.97 539.11 634.84 542.25 C 640.49 545.38 647.01 546.01 653.18 547.57 C 662.99 549.52 673.02 551.19 683.05 550.42 C 695.20 547.64 706.41 541.02 715.08 532.09 C 720.32 526.97 725.88 521.77 728.68 514.83 C 730.59 509.57 732.49 504.15 732.55 498.48 C 732.80 489.14 733.41 479.31 729.35 470.62 C 724.28 460.32 718.72 449.72 709.57 442.43 C 702.32 436.71 694.40 431.72 688.09 424.91 C 683.85 419.37 679.89 412.61 681.26 405.34 C 683.76 394.51 692.38 385.68 702.60 381.69 Z" />
<path fill="#fefefe" opacity="1.00" d=" M 295.58 406.96 C 295.17 400.28 294.61 393.15 297.82 387.01 C 301.20 389.54 304.17 392.58 307.63 395.01 C 305.56 400.30 301.43 405.90 295.58 406.96 Z" />
<path fill="#fefefe" opacity="1.00" d=" M 546.05 397.95 C 548.86 393.74 552.81 390.50 556.23 386.81 C 559.65 394.34 561.97 402.73 560.55 411.04 C 555.42 407.01 550.42 402.81 546.05 397.95 Z" />
<path fill="#fefefe" opacity="1.00" d=" M 307.46 409.99 C 307.41 405.49 308.51 401.09 309.77 396.81 C 312.81 399.04 316.65 400.57 318.74 403.84 C 318.37 414.05 316.28 424.56 310.92 433.39 C 306.49 426.41 307.47 417.85 307.46 409.99 Z" />
<path fill="#fefefe" opacity="1.00" d=" M 524.33 412.16 C 529.31 409.54 533.99 406.37 538.55 403.08 C 542.62 412.11 543.11 422.23 542.80 431.99 C 537.70 430.87 534.56 426.38 531.00 422.97 C 528.40 419.63 525.00 416.55 524.33 412.16 Z" />
<path fill="#fefefe" opacity="1.00" d=" M 323.57 431.85 C 322.91 423.01 321.53 413.89 323.49 405.15 C 325.88 406.74 328.39 408.14 330.89 409.56 C 330.79 417.40 330.44 425.24 330.38 433.09 C 330.43 436.27 329.24 439.71 325.92 440.74 C 324.64 437.94 323.70 434.95 323.57 431.85 Z" />
<path fill="#fefefe" opacity="1.00" d=" M 333.53 410.93 C 337.94 411.85 341.66 414.47 345.79 416.10 C 343.21 420.95 340.44 425.76 337.22 430.23 C 336.35 431.78 334.45 431.81 332.94 432.27 C 332.37 425.21 331.61 417.84 333.53 410.93 Z" />
<path fill="#000000" opacity="1.00" d=" M 116.76 414.56 C 121.89 412.95 126.58 416.80 130.72 419.31 C 135.56 421.95 135.89 429.75 131.85 433.07 C 123.59 434.45 115.33 436.40 107.72 439.97 C 105.53 436.27 106.14 431.78 108.04 428.10 C 110.39 423.33 112.21 417.71 116.76 414.56 Z" />
<path fill="#000000" opacity="1.00" d=" M 776.57 414.50 C 780.64 412.55 784.89 415.78 786.53 419.44 C 789.54 425.59 794.32 432.00 792.46 439.22 C 791.56 442.76 787.46 443.38 784.57 444.56 C 781.89 445.19 779.06 447.09 776.33 445.86 C 771.80 444.21 768.93 439.93 767.49 435.52 C 766.17 431.52 763.56 427.41 764.75 423.07 C 766.95 418.41 772.03 416.23 776.57 414.50 Z" />
<path fill="#fefefe" opacity="1.00" d=" M 509.24 420.31 C 513.19 418.44 516.97 416.16 521.18 414.86 C 523.81 419.86 524.23 425.56 525.37 431.01 C 526.68 437.60 526.82 444.39 526.28 451.08 C 521.20 448.91 519.15 443.21 516.08 438.99 C 513.30 433.00 509.01 427.18 509.24 420.31 Z" />
<path fill="#fefefe" opacity="1.00" d=" M 353.25 419.82 C 357.49 420.70 361.51 422.36 365.68 423.52 C 367.61 424.18 369.82 424.51 371.28 426.07 C 370.33 430.78 368.34 435.17 366.60 439.63 C 365.03 443.53 363.26 447.50 360.22 450.50 C 355.89 440.88 352.96 430.44 353.25 419.82 Z" />
<path fill="#fefefe" opacity="1.00" d=" M 484.77 427.25 C 491.98 425.64 498.90 423.01 506.02 421.15 C 506.31 421.41 506.88 421.93 507.17 422.19 C 507.59 431.26 507.78 440.68 504.27 449.24 C 503.66 449.43 502.45 449.81 501.84 450.01 C 500.89 449.34 499.85 448.77 499.08 447.90 C 494.35 442.55 490.09 436.80 486.12 430.86 C 485.43 429.76 485.19 428.45 484.77 427.25 Z" />
<path fill="#000000" opacity="1.00" d=" M 246.14 426.93 C 250.99 424.19 256.29 421.75 262.01 422.16 C 269.83 421.56 277.54 425.68 281.71 432.27 C 285.98 437.91 286.28 445.34 285.49 452.10 C 284.00 458.12 280.37 463.75 275.01 467.01 C 264.82 474.11 249.10 471.12 242.30 460.69 C 238.66 454.90 237.23 447.97 237.38 441.20 C 240.26 441.82 243.27 442.17 246.17 441.44 C 248.77 439.68 251.37 436.73 250.53 433.34 C 250.40 430.52 247.88 428.81 246.14 426.93 Z" />
<path fill="#fefefe" opacity="1.00" d=" M 345.77 428.69 C 347.07 427.24 349.02 427.16 350.83 427.09 C 353.13 436.33 353.62 446.62 359.88 454.28 C 359.72 462.51 357.96 470.85 354.24 478.24 C 353.49 480.81 349.83 480.29 348.85 478.17 C 340.35 466.01 335.37 450.85 336.54 435.97 C 339.65 433.59 342.89 431.37 345.77 428.69 Z" />
<path fill="#fefefe" opacity="1.00" d=" M 382.53 428.31 C 385.56 428.45 388.58 428.64 391.62 428.68 C 394.34 437.50 395.10 446.85 398.47 455.50 C 401.37 462.29 399.57 469.88 397.48 476.64 C 395.80 482.78 393.14 488.65 389.52 493.89 C 388.17 493.87 386.80 493.98 385.48 493.69 C 380.81 487.98 378.66 480.79 376.33 473.93 C 373.13 462.45 371.99 450.43 372.86 438.56 C 373.13 436.01 375.52 434.75 377.29 433.28 C 379.24 431.85 380.90 430.08 382.53 428.31 Z" />
<path fill="#fefefe" opacity="1.00" d=" M 395.38 429.72 C 403.20 430.79 411.21 431.37 418.82 433.43 C 417.73 438.46 416.66 443.51 415.70 448.58 C 414.10 457.32 413.65 466.28 410.96 474.80 C 405.82 469.44 404.23 461.98 401.56 455.28 C 398.96 446.92 395.79 438.55 395.38 429.72 Z" />
<path fill="#fefefe" opacity="1.00" d=" M 444.00 431.81 C 451.01 432.00 457.90 430.48 464.89 430.24 C 463.86 441.90 460.50 453.86 453.27 463.26 C 451.96 465.41 449.50 466.13 447.12 466.29 C 444.59 465.23 442.82 462.89 441.28 460.71 C 435.74 451.90 431.38 442.35 428.14 432.47 C 433.43 432.38 438.72 432.22 444.00 431.81 Z" />
<path fill="#fefefe" opacity="1.00" d=" M 467.81 444.98 C 467.79 440.99 471.16 438.60 473.95 436.36 C 483.04 440.97 490.67 448.15 500.09 452.20 C 501.29 452.39 502.51 452.55 503.73 452.67 C 503.57 456.74 503.54 460.82 503.33 464.90 C 502.74 473.34 499.75 481.42 495.80 488.84 C 493.50 493.38 490.55 497.82 486.20 500.62 C 481.22 494.84 478.04 487.76 475.27 480.72 C 470.73 469.35 468.37 457.18 467.81 444.98 Z" />
<path fill="#fefefe" opacity="1.00" d=" M 421.28 450.01 C 421.18 447.49 423.98 446.56 425.72 445.41 C 428.47 450.58 430.18 456.38 434.23 460.77 C 437.00 464.14 440.82 466.52 444.77 468.29 C 448.04 469.56 451.19 467.73 453.98 466.18 C 453.62 474.84 451.59 483.41 448.07 491.33 C 446.19 495.70 444.35 500.45 440.44 503.45 C 438.11 504.32 436.94 501.74 435.85 500.20 C 432.00 493.59 428.85 486.55 426.79 479.17 C 424.10 469.66 421.20 459.97 421.28 450.01 Z" />
<path fill="#fefefe" opacity="1.00" d=" M 609.17 456.11 C 611.65 452.40 614.77 449.17 617.17 445.40 C 618.89 448.32 620.19 451.48 621.24 454.71 C 626.57 470.13 633.67 484.84 640.40 499.68 C 645.70 510.10 651.83 520.06 658.13 529.91 C 654.57 529.88 650.83 530.06 647.57 528.41 C 641.23 525.38 634.47 523.26 628.49 519.50 C 620.67 515.34 614.41 508.96 607.60 503.42 C 602.32 498.77 596.22 492.72 597.64 484.99 C 599.55 474.76 602.91 464.55 609.17 456.11 Z" />
<path fill="#fefefe" opacity="1.00" d=" M 122.93 448.74 C 130.28 447.40 137.92 447.26 145.22 449.00 C 154.12 451.76 162.29 456.63 169.45 462.55 C 173.86 466.77 179.06 470.29 182.49 475.44 C 186.40 480.96 187.23 487.87 188.27 494.38 C 188.81 500.10 188.88 505.89 188.34 511.62 C 186.10 522.65 180.74 532.67 177.51 543.41 C 169.85 545.26 161.88 546.18 154.65 549.49 C 151.29 550.81 148.31 552.98 144.81 553.97 C 144.42 548.11 146.30 542.29 149.44 537.39 C 154.90 528.50 160.78 519.40 162.25 508.85 C 163.10 499.75 163.05 489.92 158.19 481.85 C 154.69 476.19 150.67 470.64 145.27 466.66 C 133.60 460.66 119.19 461.44 107.79 467.69 C 102.17 471.06 98.37 476.75 95.51 482.50 C 92.12 489.96 92.40 500.44 99.55 505.63 C 102.06 506.39 104.63 505.54 107.12 505.15 C 107.45 505.64 108.10 506.64 108.43 507.13 C 106.66 509.63 104.35 512.42 101.00 512.40 C 91.73 512.03 82.54 503.72 83.39 494.04 C 83.22 487.20 84.35 480.31 86.98 473.99 C 89.04 468.86 91.90 463.69 96.83 460.84 C 104.99 455.79 113.49 450.91 122.93 448.74 Z" />
<path fill="#000000" opacity="1.00" d=" M 786.31 472.28 C 790.12 470.19 794.25 468.68 798.45 467.59 C 799.85 467.43 801.66 466.89 802.56 468.39 C 805.69 472.04 807.96 476.32 810.85 480.16 C 812.17 482.18 813.96 483.96 814.86 486.24 C 815.14 489.08 814.52 491.93 813.69 494.63 C 811.86 500.25 810.68 506.07 808.34 511.51 C 802.14 513.13 795.77 510.64 789.45 511.26 C 787.25 503.01 786.61 494.42 784.92 486.05 C 784.32 482.29 782.95 478.54 783.57 474.69 C 783.85 473.40 785.35 472.98 786.31 472.28 Z" />
<path fill="#000000" opacity="1.00" d=" M 124.79 483.58 C 126.40 483.64 128.00 483.70 129.60 483.76 C 129.79 487.77 128.88 491.68 128.10 495.59 C 124.69 516.09 123.09 536.85 123.30 557.64 C 121.47 556.67 117.93 556.69 118.35 553.82 C 118.13 536.91 119.52 520.03 121.68 503.29 C 122.30 496.65 124.23 490.22 124.79 483.58 Z" />
<path fill="#fefefe" opacity="1.00" d=" M 334.14 514.23 C 335.41 512.26 337.07 510.28 339.58 510.07 C 336.59 520.15 332.48 529.95 326.88 538.89 C 317.36 554.10 310.26 570.86 298.91 584.90 C 295.62 588.29 292.44 592.31 287.81 593.84 C 286.40 594.40 285.69 593.01 285.05 592.06 C 282.53 588.17 280.33 584.07 277.52 580.38 C 276.61 579.33 276.25 577.99 275.90 576.69 C 282.82 573.32 289.10 568.84 295.32 564.35 C 303.95 556.63 311.99 548.15 318.38 538.45 C 323.56 530.33 328.81 522.25 334.14 514.23 Z" />
<path fill="#fefefe" opacity="1.00" d=" M 376.58 520.71 C 386.54 515.65 397.70 512.56 408.94 513.33 C 418.30 513.01 427.37 515.49 436.43 517.48 C 442.18 518.93 448.07 519.75 453.89 520.90 C 461.50 522.41 468.83 525.00 476.21 527.36 C 475.80 529.03 475.26 530.73 473.84 531.83 C 467.28 537.85 459.58 542.43 452.03 547.08 C 449.32 548.75 446.62 550.53 443.55 551.46 C 438.83 552.39 434.54 549.53 429.98 548.87 C 425.01 548.29 420.07 547.37 415.06 547.41 C 404.73 547.28 394.32 546.50 384.05 547.87 C 370.78 551.20 358.98 558.85 348.62 567.61 C 346.04 569.76 343.57 572.06 341.48 574.70 C 344.58 574.20 347.13 572.26 349.81 570.77 C 355.22 567.60 361.18 565.56 366.80 562.79 C 374.33 558.90 382.40 555.40 391.04 555.39 C 402.00 555.43 413.28 554.86 423.84 558.23 C 430.39 560.20 435.31 566.23 435.97 573.03 C 436.17 581.07 432.41 588.47 429.23 595.66 C 427.26 595.57 425.14 595.75 423.42 594.62 C 417.97 591.68 412.45 588.91 407.01 585.97 C 400.50 582.41 392.98 581.68 385.77 580.60 C 376.33 580.66 366.94 578.68 357.49 579.76 C 350.68 581.08 344.34 584.02 338.22 587.19 C 333.49 589.71 329.27 593.16 324.33 595.27 C 322.88 596.04 321.52 594.88 320.22 594.38 C 319.72 588.01 321.93 581.96 324.33 576.19 C 330.13 562.97 338.85 551.19 349.14 541.13 C 357.73 533.65 365.97 525.30 376.58 520.71 Z" />
<path fill="#000000" opacity="1.00" d=" M 89.48 538.43 C 90.84 536.60 93.41 537.34 95.32 537.59 C 99.18 540.07 101.42 544.23 104.29 547.69 C 109.62 553.92 114.88 560.23 119.85 566.77 C 115.45 572.39 111.17 578.12 106.64 583.65 C 102.30 589.05 99.18 596.39 91.96 598.47 C 87.08 595.20 84.20 589.95 80.33 585.68 C 75.10 579.09 68.55 573.72 63.40 567.08 C 70.62 560.42 77.91 553.73 83.81 545.83 C 85.71 543.37 87.32 540.67 89.48 538.43 Z" />
<path fill="#000000" opacity="1.00" d=" M 802.45 539.43 C 804.02 537.18 806.86 537.03 809.33 537.59 C 812.37 539.94 813.82 543.75 816.53 546.47 C 822.21 553.98 829.41 560.11 835.84 566.94 C 829.04 575.72 820.12 582.71 814.10 592.12 C 812.20 595.22 808.86 598.94 804.83 597.32 C 801.62 595.50 799.83 592.14 797.87 589.17 C 793.98 583.22 791.46 576.48 787.35 570.66 C 785.81 568.47 784.30 566.27 782.90 564.00 C 789.48 555.86 795.51 547.26 802.45 539.43 Z" />
<path fill="#fefefe" opacity="1.00" d=" M 450.90 561.01 C 463.42 554.58 474.53 545.47 488.12 541.22 C 492.25 545.00 495.75 549.40 499.14 553.85 C 504.13 560.18 506.99 567.83 509.81 575.30 C 510.75 577.56 510.78 580.04 510.95 582.46 C 504.09 582.84 497.26 580.83 490.41 582.08 C 474.37 583.01 459.50 589.94 445.70 597.70 C 444.19 598.74 442.35 598.61 440.62 598.57 C 439.75 590.05 441.71 581.64 443.34 573.34 C 444.80 568.77 446.01 563.12 450.90 561.01 Z" />
<path fill="#fefefe" opacity="1.00" d=" M 158.27 559.46 C 166.32 555.89 175.20 554.64 183.94 554.43 C 192.29 554.25 200.69 553.77 209.02 554.63 C 215.59 556.22 221.52 559.64 227.68 562.31 C 238.68 567.20 247.22 576.11 254.47 585.49 C 261.83 596.84 268.49 609.35 269.63 623.05 C 269.67 632.65 271.05 642.86 266.79 651.82 C 266.35 653.39 264.68 653.78 263.36 654.35 C 251.37 658.30 238.61 657.94 226.15 657.82 C 226.00 651.59 226.09 645.35 226.69 639.16 C 227.49 633.24 228.17 626.92 225.72 621.29 C 221.02 609.34 211.41 600.25 201.29 592.76 C 195.21 588.47 188.70 584.43 181.41 582.63 C 175.95 582.14 170.14 581.69 165.00 583.98 C 158.98 586.37 153.02 589.03 147.62 592.64 C 140.75 597.64 136.21 605.43 134.46 613.69 C 131.41 622.27 130.09 632.01 133.42 640.70 C 135.62 646.18 141.99 647.05 146.56 649.65 C 147.20 651.58 146.81 653.63 146.69 655.61 C 143.49 655.91 140.10 656.25 137.06 654.96 C 129.73 651.82 121.78 648.74 116.85 642.13 C 114.29 637.21 113.94 631.46 113.50 626.03 C 113.23 615.41 113.22 604.05 118.72 594.59 C 127.56 578.86 142.56 567.72 158.27 559.46 Z" />
<path fill="#fefefe" opacity="1.00" d=" M 766.57 576.56 C 768.69 574.08 770.45 571.30 772.89 569.10 C 777.56 572.96 780.51 578.34 783.43 583.54 C 788.07 591.86 787.55 601.74 787.50 610.95 C 787.70 616.51 785.74 622.00 782.46 626.44 C 779.29 630.01 774.31 632.05 769.54 631.61 C 768.54 630.76 767.71 629.74 766.85 628.80 C 771.81 626.95 777.60 623.93 778.20 618.02 C 778.22 613.56 777.60 609.10 777.15 604.68 C 775.54 598.95 772.55 592.70 766.79 590.19 C 763.56 588.62 759.99 588.05 756.52 587.29 C 759.85 583.69 763.47 580.37 766.57 576.56 Z" />
<path fill="#fefefe" opacity="1.00" d=" M 333.71 598.63 C 342.74 594.05 351.90 589.14 362.00 587.47 C 370.99 587.05 380.04 586.91 389.01 587.59 C 397.59 589.48 406.18 592.38 413.21 597.81 C 417.34 600.85 422.80 603.71 423.53 609.37 C 424.03 615.41 423.81 621.55 423.14 627.58 C 421.31 634.09 418.13 641.06 412.00 644.51 C 404.35 641.96 397.24 637.70 389.19 636.40 C 379.77 634.86 370.07 633.43 360.59 635.39 C 354.71 636.22 349.49 639.39 343.73 640.59 C 335.86 641.50 330.45 633.78 322.97 633.31 C 325.55 638.11 329.72 643.34 328.11 649.11 C 324.45 655.36 321.15 661.86 318.79 668.74 C 318.29 670.31 318.46 671.99 318.45 673.63 C 321.22 669.40 323.46 664.72 327.28 661.30 C 337.93 651.24 352.19 644.44 367.03 644.59 C 378.40 644.01 389.66 646.42 400.50 649.67 C 405.42 651.28 409.85 654.07 414.19 656.84 C 417.93 659.25 421.09 662.74 422.41 667.06 C 423.11 672.72 422.91 678.45 422.64 684.13 C 422.50 688.79 421.28 693.67 418.18 697.26 C 417.85 697.40 417.18 697.67 416.85 697.81 C 408.29 698.13 399.79 696.08 391.23 696.64 C 379.69 699.88 367.50 701.15 356.64 706.53 C 346.85 710.31 339.03 718.29 334.57 727.69 C 330.42 734.76 332.48 743.28 333.11 750.97 C 336.54 742.37 337.00 732.41 342.84 724.84 C 347.33 718.14 355.27 715.49 362.27 712.30 C 372.83 707.53 384.41 704.94 396.03 705.43 C 406.01 705.41 417.74 704.88 425.16 712.84 C 430.29 717.38 431.48 724.39 431.44 730.92 C 431.36 734.86 431.89 739.69 428.43 742.45 C 422.49 747.39 417.08 752.97 410.52 757.13 C 412.81 759.33 414.19 762.14 414.40 765.34 C 416.15 778.87 423.49 790.77 431.60 801.41 C 436.03 806.33 441.09 810.64 445.36 815.69 C 448.56 819.41 453.43 821.77 455.29 826.55 C 458.52 834.17 464.22 840.27 469.43 846.56 C 473.28 851.36 477.97 855.37 482.16 859.86 C 485.24 863.21 489.16 865.71 491.97 869.34 C 474.11 872.09 455.66 869.02 439.03 862.21 C 433.39 859.61 427.42 857.81 421.84 855.10 C 413.44 851.20 405.92 845.76 398.04 840.97 C 390.35 836.04 382.32 831.58 375.22 825.79 C 357.93 810.98 343.23 793.34 330.73 774.37 C 326.57 766.76 323.25 758.73 320.15 750.65 C 316.50 743.17 314.39 735.10 311.60 727.29 C 307.73 715.61 305.76 703.41 305.23 691.14 C 303.78 678.82 304.66 666.38 303.68 654.03 C 303.09 640.43 305.46 626.32 312.42 614.46 C 318.07 607.51 326.16 603.19 333.71 598.63 Z" />
<path fill="#fefefe" opacity="1.00" d=" M 441.13 608.18 C 456.35 602.51 470.06 592.78 486.23 589.77 C 492.47 589.26 498.75 589.64 504.96 590.43 C 509.69 590.98 515.57 589.92 519.09 593.89 C 524.62 599.77 527.46 607.48 531.76 614.20 C 533.56 616.86 534.86 619.84 535.45 623.01 C 527.35 625.16 518.80 624.42 510.72 626.72 C 504.69 628.74 500.21 633.44 495.73 637.72 C 491.25 641.98 487.43 646.91 484.20 652.17 C 483.18 653.87 481.76 655.26 480.30 656.56 C 474.87 653.43 470.20 648.89 464.10 647.05 C 456.63 644.59 448.65 645.36 440.92 645.40 C 436.45 645.31 432.07 646.46 427.61 646.24 C 427.53 640.90 429.22 635.78 430.12 630.58 C 431.16 624.53 431.59 618.13 434.73 612.71 C 436.01 610.23 438.73 609.20 441.13 608.18 Z" />
<path fill="#000000" opacity="1.00" d=" M 795.52 623.46 C 799.68 623.68 803.88 623.32 808.02 623.88 C 810.12 627.22 809.89 631.53 810.93 635.29 C 811.56 638.95 813.49 642.70 812.49 646.46 C 808.84 651.77 805.14 657.11 800.69 661.80 C 799.62 663.01 797.36 663.06 796.43 661.65 C 793.15 658.24 790.08 654.57 786.17 651.85 C 784.29 650.40 781.50 648.92 782.41 646.07 C 782.25 641.26 786.71 638.67 789.30 635.29 C 792.20 631.83 794.20 627.75 795.52 623.46 Z" />
<path fill="#fefefe" opacity="1.00" d=" M 514.99 633.07 C 522.23 631.10 530.13 630.91 537.44 632.67 C 541.14 633.36 543.58 636.48 545.52 639.46 C 551.18 648.37 555.80 657.95 559.25 667.92 C 559.88 672.57 559.81 677.31 560.20 682.00 C 558.95 693.71 560.60 705.75 557.21 717.19 C 555.77 724.54 552.61 731.41 551.20 738.76 C 548.14 752.52 542.08 765.54 540.50 779.63 C 540.24 791.67 539.14 804.12 543.31 815.69 C 545.60 822.62 550.57 828.27 556.11 832.85 C 560.99 836.48 566.84 838.25 572.36 840.62 C 574.55 841.83 575.12 844.59 576.33 846.63 C 578.33 851.33 581.90 855.04 584.84 859.13 C 572.76 866.08 559.49 871.01 545.75 873.37 C 536.91 873.99 527.50 873.66 519.54 869.32 C 506.27 861.95 492.73 853.96 483.39 841.67 C 475.37 830.55 468.58 818.23 465.63 804.74 C 464.97 796.84 464.86 788.83 465.85 780.96 C 468.25 767.45 472.37 754.32 476.21 741.17 C 479.00 730.57 482.66 720.24 486.09 709.84 C 490.60 694.75 490.06 678.75 488.75 663.26 C 491.94 649.77 502.54 638.70 514.99 633.07 Z" />
<path fill="#fefefe" opacity="1.00" d=" M 437.12 654.05 C 446.71 652.53 457.14 651.35 466.16 655.85 C 474.17 660.69 477.98 670.11 478.38 679.15 C 478.63 691.54 478.99 704.29 474.98 716.18 C 473.47 721.46 472.89 727.60 468.22 731.24 C 465.66 734.09 461.57 732.68 458.53 731.55 C 452.71 729.28 446.35 731.05 440.39 729.77 C 438.66 724.61 438.13 719.07 435.77 714.13 C 433.64 709.65 430.89 705.23 426.70 702.41 C 428.64 698.37 430.93 694.46 432.05 690.09 C 434.07 683.57 433.68 676.54 432.18 669.96 C 430.80 665.74 428.67 661.83 426.94 657.77 C 429.81 655.36 433.61 654.91 437.12 654.05 Z" />
<path fill="#000000" opacity="1.00" d=" M 132.06 667.35 C 133.75 667.40 135.44 667.50 137.13 667.69 C 139.54 675.74 142.97 683.39 146.34 691.07 C 145.44 692.36 144.46 693.60 143.34 694.73 C 138.21 686.24 135.22 676.69 132.06 667.35 Z" />
<path fill="#fefefe" opacity="1.00" d=" M 177.04 685.09 C 187.49 680.56 198.75 678.33 210.00 676.81 C 214.99 676.18 219.95 677.33 224.94 677.36 C 233.47 677.72 241.32 681.78 247.80 687.13 C 253.96 692.29 260.67 696.96 265.68 703.34 C 271.83 710.67 280.24 716.88 290.09 717.46 C 291.49 717.61 293.80 717.01 293.97 719.10 C 295.98 730.31 300.34 740.89 303.20 751.87 C 304.04 756.51 306.39 761.13 305.01 765.91 C 303.73 773.27 300.75 780.85 294.70 785.57 C 285.99 790.96 274.95 788.37 266.78 783.22 C 260.47 779.05 253.69 775.08 249.18 768.83 C 244.09 761.22 242.08 752.15 238.48 743.85 C 235.54 736.48 231.85 729.35 227.00 723.05 C 219.09 714.05 205.16 709.58 193.95 714.80 C 189.02 716.90 183.64 718.90 180.28 723.33 C 177.42 727.00 174.68 730.88 172.96 735.25 C 170.88 740.43 171.10 746.12 171.10 751.61 C 171.11 760.26 172.45 769.31 177.44 776.59 C 181.04 781.44 184.59 787.12 183.45 793.46 C 175.50 789.57 168.17 784.53 160.19 780.69 C 155.91 778.65 151.41 776.42 148.69 772.36 C 144.80 766.49 141.28 760.09 140.56 752.97 C 139.98 746.34 139.82 739.62 140.69 733.01 C 142.71 725.65 145.76 718.51 150.13 712.22 C 154.39 706.20 158.45 699.96 163.95 694.97 C 168.06 691.38 171.98 687.35 177.04 685.09 Z" />
<path fill="#000000" opacity="1.00" d=" M 107.21 691.47 C 111.08 688.26 115.78 686.26 120.49 684.62 C 124.38 683.37 127.33 686.78 129.18 689.73 C 131.02 693.01 132.55 696.45 134.28 699.79 C 134.94 701.37 136.35 703.14 135.30 704.90 C 132.64 709.99 129.61 716.00 123.45 717.34 C 119.63 719.58 115.57 716.63 113.65 713.31 C 111.36 709.34 109.33 705.21 107.75 700.92 C 106.91 697.85 107.17 694.61 107.21 691.47 Z" />
<path fill="#fefefe" opacity="1.00" d=" M 603.93 698.08 C 613.88 692.47 626.50 690.05 637.31 694.57 C 646.69 698.13 653.31 705.96 660.69 712.39 C 668.24 718.42 674.19 726.55 683.04 730.87 C 693.17 736.22 705.01 736.54 716.17 735.48 C 727.62 732.97 738.33 726.94 746.04 718.04 C 752.74 711.68 756.29 702.01 764.85 697.71 C 768.41 698.76 768.13 702.46 767.71 705.47 C 764.77 720.32 756.82 733.67 747.09 745.08 C 742.98 750.25 738.46 755.11 733.43 759.39 C 722.60 767.40 711.28 775.04 698.59 779.77 C 685.69 784.84 671.13 784.88 657.89 781.08 C 655.13 780.42 652.45 779.44 649.99 778.04 C 644.88 775.17 639.53 772.69 634.78 769.22 C 621.86 759.79 605.32 757.01 589.65 757.44 C 592.66 749.61 594.42 741.39 596.56 733.30 C 598.87 723.61 601.30 713.90 602.38 703.98 C 602.65 701.98 602.23 699.57 603.93 698.08 Z" />
<path fill="#fefefe" opacity="1.00" d=" M 579.19 701.02 C 579.44 698.51 579.97 696.04 580.99 693.73 C 581.60 699.59 581.90 705.58 580.76 711.40 C 579.46 722.83 579.57 734.49 576.50 745.66 C 574.76 751.54 573.82 757.66 571.32 763.30 C 568.64 771.30 565.76 779.44 565.47 787.96 C 564.98 797.79 564.85 807.69 566.65 817.39 C 561.86 814.05 558.03 809.04 557.71 803.03 C 557.27 794.57 557.18 786.03 558.20 777.61 C 558.70 757.20 570.12 739.37 574.63 719.85 C 575.98 713.53 578.38 707.46 579.19 701.02 Z" />
<path fill="#fefefe" opacity="1.00" d=" M 445.04 739.98 C 450.83 737.51 457.77 739.84 461.57 744.70 C 462.36 748.34 461.43 752.08 460.41 755.59 C 456.08 769.67 449.59 783.24 448.14 798.05 C 444.02 796.52 440.79 793.34 437.65 790.38 C 432.58 784.52 427.29 778.51 424.66 771.10 C 423.60 764.94 424.04 758.08 427.92 752.94 C 432.27 747.10 438.69 743.28 445.04 739.98 Z" />
<path fill="#000000" opacity="1.00" d=" M 698.68 803.55 C 704.96 802.44 711.21 806.44 714.18 811.84 C 716.20 814.76 716.49 819.27 713.95 821.98 C 704.73 833.39 693.24 842.65 682.24 852.24 C 679.29 854.66 676.52 857.35 673.27 859.37 C 669.42 860.22 664.41 860.74 661.52 857.47 C 657.83 853.72 655.40 848.98 653.14 844.30 C 667.32 833.59 681.15 822.27 693.03 809.02 C 694.87 807.15 696.60 805.16 698.68 803.55 Z" />
<path fill="#000000" opacity="1.00" d=" M 194.60 804.57 C 197.34 804.05 200.92 803.69 202.97 806.00 C 214.29 819.36 227.75 830.75 241.71 841.26 C 243.19 842.64 245.83 843.49 245.93 845.81 C 243.13 849.96 240.19 854.07 236.84 857.80 C 233.40 861.79 226.68 861.52 223.03 857.97 C 217.45 852.85 211.24 848.47 205.90 843.11 C 197.72 835.50 188.36 828.34 183.50 818.00 C 186.17 812.87 189.01 807.03 194.60 804.57 Z" />
<path fill="#fefefe" opacity="1.00" d=" M 325.41 834.47 C 329.55 826.60 332.27 817.98 332.93 809.10 C 338.76 814.58 344.20 820.47 349.91 826.09 C 354.59 831.27 360.03 835.69 364.47 841.10 C 361.11 845.87 358.04 850.85 354.37 855.40 C 348.66 861.76 342.04 867.30 334.81 871.86 C 331.04 874.26 326.58 875.49 323.17 878.47 C 328.10 878.72 332.71 876.58 337.41 875.39 C 348.40 871.71 357.53 864.30 367.27 858.26 C 368.99 857.13 371.12 857.06 373.09 856.69 C 370.82 861.30 367.40 865.20 364.00 869.00 C 356.97 875.86 349.19 882.40 339.80 885.71 C 328.25 890.26 315.40 891.99 303.15 889.72 C 291.59 886.26 280.05 881.96 270.28 874.70 C 264.66 871.07 260.25 866.01 255.16 861.75 C 255.31 857.15 260.55 856.88 263.86 858.24 C 277.66 859.23 292.08 859.32 305.17 854.18 C 314.05 850.42 321.14 843.04 325.41 834.47 Z" />
<path fill="#000000" opacity="1.00" d=" M 613.75 859.10 C 626.25 859.25 637.85 864.55 649.73 867.79 C 649.27 871.17 647.60 874.20 646.34 877.33 C 642.27 886.50 639.50 896.18 635.29 905.30 C 623.29 902.00 611.39 898.26 599.10 896.19 C 599.03 890.42 602.13 885.38 603.92 880.07 C 606.98 873.00 609.38 865.51 613.75 859.10 Z" />
<path fill="#000000" opacity="1.00" d=" M 542.23 896.27 C 553.03 893.73 563.07 888.89 573.64 885.66 C 575.57 889.65 577.65 893.61 579.08 897.83 C 580.58 903.11 577.99 909.76 572.59 911.64 C 568.29 913.42 563.82 914.77 559.38 916.16 C 554.50 917.78 548.26 915.58 546.34 910.61 C 544.39 906.02 542.85 901.22 542.23 896.27 Z" />
<path fill="#000000" opacity="1.00" d=" M 436.47 912.45 C 441.36 908.41 446.04 904.12 451.02 900.19 C 456.99 904.01 461.22 909.88 466.86 914.13 C 470.98 918.29 476.74 921.22 479.04 926.89 C 471.36 934.27 463.01 940.95 455.04 948.03 C 453.30 949.41 451.01 951.88 448.65 950.44 C 440.79 943.97 433.66 936.68 425.71 930.33 C 424.10 929.10 422.78 927.57 421.56 925.99 C 425.86 920.81 431.43 916.87 436.47 912.45 Z" />
<path fill="#000000" opacity="1.00" d=" M 493.29 905.60 C 504.55 904.55 515.75 902.82 526.78 900.25 C 528.49 905.34 529.89 910.59 530.18 915.98 C 529.78 920.06 526.59 923.19 523.30 925.27 C 519.72 926.82 515.71 926.70 511.95 927.60 C 507.95 928.24 503.31 929.85 499.62 927.39 C 497.67 926.02 495.65 924.45 494.60 922.28 C 493.03 916.87 493.53 911.16 493.29 905.60 Z" />
<path fill="#000000" opacity="1.00" d=" M 373.81 901.88 C 383.86 902.39 393.64 905.07 403.67 905.67 C 405.05 905.80 406.42 906.03 407.78 906.35 C 407.64 911.19 407.98 916.11 407.07 920.88 C 406.07 925.44 401.85 928.44 397.53 929.46 C 392.11 929.54 386.87 927.72 381.49 927.28 C 376.76 927.00 373.20 923.18 371.65 918.95 C 370.88 913.17 372.68 907.48 373.81 901.88 Z" />
</svg>
